SN Abbatia Beta-Medium.ufo
<glyph name="exclam" format="2">
  <advance width="255"/>
  <unicode hex="0021"/>
  <outline>
    <contour>
      <point x="93" y="233" type="line"/>
      <point x="157" y="233" type="line"/>
      <point x="202" y="725" type="line"/>
      <point x="176" y="750" type="line"/>
      <point x="57" y="731" type="line"/>
      <point x="77" y="359" type="line"/>
    </contour>
    <component base="period" xOffset="-13"/>
  </outline>
</glyph>
<glyph name="ampersand" format="2">
  <advance width="563"/>
  <unicode hex="0026"/>
  <outline>
    <contour>
      <point x="539" y="393" type="line"/>
      <point x="224" y="393" type="line"/>
      <point x="208" y="421"/>
      <point x="200" y="457"/>
      <point x="200" y="499" type="curve" smooth="yes"/>
      <point x="200" y="523"/>
      <point x="201" y="542"/>
      <point x="205" y="565" type="curve"/>
      <point x="229" y="572"/>
      <point x="262" y="577"/>
      <point x="299" y="577" type="curve" smooth="yes"/>
      <point x="340" y="577"/>
      <point x="379" y="572"/>
      <point x="419" y="564" type="curve"/>
      <point x="437" y="670" type="line"/>
      <point x="394" y="683"/>
      <point x="351" y="690"/>
      <point x="291" y="690" type="curve" smooth="yes"/>
      <point x="239" y="690"/>
      <point x="189" y="681"/>
      <point x="153" y="668" type="curve"/>
      <point x="77" y="585" type="line"/>
      <point x="74" y="570"/>
      <point x="73" y="552"/>
      <point x="73" y="531" type="curve" smooth="yes"/>
      <point x="73" y="484"/>
      <point x="82" y="442"/>
      <point x="91" y="415" type="curve"/>
      <point x="173" y="367" type="line"/>
      <point x="104" y="342"/>
      <point x="44" y="282"/>
      <point x="44" y="188" type="curve" smooth="yes"/>
      <point x="44" y="50"/>
      <point x="136" y="-9"/>
      <point x="254" y="-9" type="curve" smooth="yes"/>
      <point x="301" y="-9"/>
      <point x="347" y="-4"/>
      <point x="383" y="4" type="curve"/>
      <point x="471" y="96" type="line"/>
      <point x="469" y="312" type="line"/>
      <point x="539" y="327" type="line"/>
    </contour>
    <contour>
      <point x="169" y="205" type="curve" smooth="yes"/>
      <point x="169" y="284"/>
      <point x="211" y="319"/>
      <point x="267" y="319" type="curve"/>
      <point x="345" y="318" type="line"/>
      <point x="345" y="101" type="line"/>
      <point x="324" y="94"/>
      <point x="304" y="91"/>
      <point x="274" y="91" type="curve" smooth="yes"/>
      <point x="208" y="91"/>
      <point x="169" y="131"/>
    </contour>
  </outline>
</glyph>
<glyph name="parenleft" format="2">
  <advance width="382"/>
  <unicode hex="0028"/>
  <outline>
    <contour>
      <point x="288" y="-155" type="curve"/>
      <point x="328" y="-116" type="line"/>
      <point x="236" y="-5"/>
      <point x="190" y="165"/>
      <point x="190" y="335" type="curve" smooth="yes"/>
      <point x="190" y="506"/>
      <point x="236" y="676"/>
      <point x="328" y="786" type="curve"/>
      <point x="288" y="825" type="line"/>
      <point x="141" y="688"/>
      <point x="68" y="511"/>
      <point x="68" y="335" type="curve" smooth="yes"/>
      <point x="68" y="159"/>
      <point x="141" y="-18"/>
    </contour>
  </outline>
</glyph>
<glyph name="comma" format="2">
  <advance width="275"/>
  <unicode hex="002C"/>
  <outline>
    <contour>
      <point x="103" y="-194" type="line"/>
      <point x="151" y="-151"/>
      <point x="225" y="-39"/>
      <point x="225" y="64" type="curve"/>
      <point x="128" y="62" type="line"/>
      <point x="124" y="-20"/>
      <point x="90" y="-108"/>
      <point x="63" y="-169" type="curve"/>
    </contour>
    <contour>
      <point x="132" y="-3" type="line" smooth="yes"/>
      <point x="154" y="-11"/>
      <point x="179" y="0"/>
      <point x="196" y="10" type="curve"/>
      <point x="218" y="25"/>
      <point x="225" y="42"/>
      <point x="225" y="64" type="curve" smooth="yes"/>
      <point x="225" y="112"/>
      <point x="192" y="144"/>
      <point x="144" y="144" type="curve" smooth="yes"/>
      <point x="115" y="144"/>
      <point x="94" y="131"/>
      <point x="77" y="114" type="curve"/>
      <point x="64" y="88"/>
      <point x="61" y="57"/>
      <point x="64" y="21" type="curve"/>
    </contour>
  </outline>
</glyph>
<glyph name="hyphen" format="2">
  <advance width="467"/>
  <unicode hex="002D"/>
  <outline>
    <contour>
      <point x="60" y="257" type="line"/>
      <point x="75" y="242" type="line"/>
      <point x="399" y="242" type="line"/>
      <point x="407" y="347" type="line"/>
      <point x="68" y="347" type="line"/>
    </contour>
  </outline>
</glyph>
<glyph name="period" format="2">
  <advance width="279"/>
  <unicode hex="002E"/>
  <outline>
    <contour>
      <point x="137" y="-10" type="curve" smooth="yes"/>
      <point x="161" y="-10"/>
      <point x="181" y="-4"/>
      <point x="198" y="6" type="curve"/>
      <point x="210" y="22"/>
      <point x="219" y="45"/>
      <point x="219" y="67" type="curve" smooth="yes"/>
      <point x="219" y="113"/>
      <point x="188" y="144"/>
      <point x="143" y="144" type="curve" smooth="yes"/>
      <point x="116" y="144"/>
      <point x="98" y="136"/>
      <point x="80" y="125" type="curve"/>
      <point x="67" y="107"/>
      <point x="60" y="90"/>
      <point x="60" y="63" type="curve" smooth="yes"/>
      <point x="60" y="19"/>
      <point x="92" y="-10"/>
    </contour>
  </outline>
</glyph>
<glyph name="question" format="2">
  <advance width="478"/>
  <unicode hex="003F"/>
  <outline>
    <contour>
      <point x="147" y="233" type="line"/>
      <point x="210" y="233" type="line"/>
      <point x="229" y="315" type="line"/>
      <point x="375" y="413" type="line"/>
      <point x="402" y="446"/>
      <point x="425" y="494"/>
      <point x="425" y="554" type="curve" smooth="yes"/>
      <point x="425" y="677"/>
      <point x="342" y="749"/>
      <point x="221" y="749" type="curve" smooth="yes"/>
      <point x="134" y="749"/>
      <point x="68" y="728"/>
      <point x="20" y="704" type="curve"/>
      <point x="41" y="530" type="line"/>
      <point x="116" y="530" type="line"/>
      <point x="135" y="673" type="line"/>
      <point x="106" y="631" type="line"/>
      <point x="130" y="642"/>
      <point x="169" y="648"/>
      <point x="204" y="648" type="curve" smooth="yes"/>
      <point x="271" y="648"/>
      <point x="305" y="606"/>
      <point x="305" y="543" type="curve" smooth="yes"/>
      <point x="305" y="488"/>
      <point x="285" y="463"/>
      <point x="218" y="422" type="curve" smooth="yes"/>
      <point x="178" y="399"/>
      <point x="147" y="372"/>
      <point x="131" y="330" type="curve"/>
    </contour>
    <component base="period" xOffset="40"/>
  </outline>
</glyph>
<glyph name="A" format="2">
  <advance width="635"/>
  <unicode hex="0041"/>
  <anchor x="562" y="10" name="ogonek"/>
  <anchor x="317" y="0" name="bottom"/>
  <anchor x="313" y="680" name="top"/>
  <outline>
    <contour>
      <point x="291" y="633" type="line"/>
      <point x="441" y="-1" type="line"/>
      <point x="628" y="0" type="line"/>
      <point x="628" y="63" type="line"/>
      <point x="561" y="83" type="line"/>
      <point x="408" y="654" type="line"/>
    </contour>
    <contour>
      <point x="181" y="188" type="line"/>
      <point x="410" y="188" type="line"/>
      <point x="410" y="268" type="line"/>
      <point x="181" y="268" type="line"/>
    </contour>
    <contour>
      <point x="7" y="0" type="line"/>
      <point x="253" y="0" type="line"/>
      <point x="253" y="63" type="line"/>
      <point x="177" y="82" type="line"/>
      <point x="303" y="571" type="line"/>
      <point x="350" y="578" type="line"/>
      <point x="408" y="654" type="line"/>
      <point x="377" y="690" type="line"/>
      <point x="181" y="680" type="line"/>
      <point x="166" y="618" type="line"/>
      <point x="223" y="598" type="line"/>
      <point x="74" y="83" type="line"/>
      <point x="7" y="63" type="line"/>
    </contour>
  </outline>
</glyph>
<glyph name="B" format="2">
  <advance width="578"/>
  <unicode hex="0042"/>
  <outline>
    <contour>
      <point x="329" y="-11" type="curve" smooth="yes"/>
      <point x="376" y="-11"/>
      <point x="410" y="-2"/>
      <point x="440" y="11" type="curve"/>
      <point x="524" y="100" type="line"/>
      <point x="524" y="224" type="line" smooth="yes"/>
      <point x="523" y="305"/>
      <point x="489" y="344"/>
      <point x="422" y="366" type="curve"/>
      <point x="425" y="355" type="line"/>
      <point x="500" y="412" type="line"/>
      <point x="504" y="444"/>
      <point x="506" y="477"/>
      <point x="506" y="513" type="curve" smooth="yes"/>
      <point x="506" y="632"/>
      <point x="422" y="689"/>
      <point x="307" y="689" type="curve"/>
      <point x="278" y="689"/>
      <point x="214" y="675"/>
      <point x="175" y="665" type="curve"/>
      <point x="175" y="577" type="line"/>
      <point x="210" y="586"/>
      <point x="252" y="589"/>
      <point x="284" y="589" type="curve" smooth="yes"/>
      <point x="347" y="589"/>
      <point x="378" y="557"/>
      <point x="378" y="495" type="curve" smooth="yes"/>
      <point x="378" y="448"/>
      <point x="376" y="404"/>
      <point x="371" y="360" type="curve"/>
      <point x="382" y="373" type="line"/>
      <point x="203" y="373" type="line"/>
      <point x="203" y="299" type="line"/>
      <point x="309" y="299" type="line" smooth="yes"/>
      <point x="370" y="299"/>
      <point x="395" y="274"/>
      <point x="395" y="217" type="curve" smooth="yes"/>
      <point x="395" y="86" type="line"/>
      <point x="412" y="117" type="line"/>
      <point x="391" y="101"/>
      <point x="356" y="92"/>
      <point x="313" y="92" type="curve" smooth="yes"/>
      <point x="271" y="92"/>
      <point x="233" y="102"/>
      <point x="205" y="122" type="curve"/>
      <point x="161" y="68" type="line"/>
      <point x="199" y="21"/>
      <point x="264" y="-11"/>
    </contour>
    <contour>
      <point x="138" y="-5" type="line"/>
      <point x="213" y="98" type="line"/>
      <point x="214" y="636" type="line"/>
      <point x="306" y="689" type="line"/>
      <point x="10" y="680" type="line"/>
      <point x="10" y="618" type="line"/>
      <point x="85" y="598" type="line"/>
      <point x="85" y="0" type="line"/>
    </contour>
  </outline>
</glyph>
<glyph name="C" format="2">
  <advance width="515"/>
  <unicode hex="0043"/>
  <outline>
    <contour>
      <point x="273" y="-10" type="curve" smooth="yes"/>
      <point x="293" y="-10"/>
      <point x="323" y="-9"/>
      <point x="338" y="-7" type="curve"/>
      <point x="471" y="32" type="line"/>
      <point x="471" y="115" type="line"/>
      <point x="431" y="108"/>
      <point x="376" y="100"/>
      <point x="331" y="100" type="curve" smooth="yes"/>
      <point x="256" y="100"/>
      <point x="182" y="139"/>
      <point x="182" y="223" type="curve" smooth="yes"/>
      <point x="182" y="601" type="line"/>
      <point x="166" y="566" type="line"/>
      <point x="194" y="580"/>
      <point x="240" y="584"/>
      <point x="279" y="584" type="curve" smooth="yes"/>
      <point x="318" y="584"/>
      <point x="358" y="580"/>
      <point x="382" y="566" type="curve"/>
      <point x="353" y="618" type="line"/>
      <point x="369" y="445" type="line"/>
      <point x="452" y="445" type="line"/>
      <point x="475" y="645" type="line"/>
      <point x="435" y="673"/>
      <point x="357" y="690"/>
      <point x="288" y="690" type="curve" smooth="yes"/>
      <point x="235" y="690"/>
      <point x="172" y="684"/>
      <point x="142" y="679" type="curve"/>
      <point x="54" y="587" type="line"/>
      <point x="54" y="194" type="line" smooth="yes"/>
      <point x="54" y="53"/>
      <point x="170" y="-10"/>
    </contour>
  </outline>
</glyph>
<glyph name="D" format="2">
  <advance width="597"/>
  <unicode hex="0044"/>
  <outline>
    <contour>
      <point x="339" y="-10" type="curve" smooth="yes"/>
      <point x="379" y="-10"/>
      <point x="425" y="-3"/>
      <point x="455" y="5" type="curve"/>
      <point x="543" y="96" type="line"/>
      <point x="542" y="514" type="line" smooth="yes"/>
      <point x="542" y="636"/>
      <point x="440" y="689"/>
      <point x="327" y="689" type="curve" smooth="yes"/>
      <point x="283" y="689"/>
      <point x="234" y="683"/>
      <point x="206" y="677" type="curve"/>
      <point x="181" y="580" type="line"/>
      <point x="215" y="578" type="line"/>
      <point x="238" y="583"/>
      <point x="269" y="586"/>
      <point x="305" y="586" type="curve" smooth="yes"/>
      <point x="361" y="586"/>
      <point x="411" y="559"/>
      <point x="411" y="499" type="curve"/>
      <point x="411" y="85" type="line"/>
      <point x="426" y="108" type="line"/>
      <point x="410" y="101"/>
      <point x="366" y="93"/>
      <point x="324" y="93" type="curve" smooth="yes"/>
      <point x="281" y="93"/>
      <point x="229" y="112"/>
      <point x="213" y="129" type="curve"/>
      <point x="175" y="67" type="line"/>
      <point x="214" y="21"/>
      <point x="277" y="-10"/>
    </contour>
    <contour>
      <point x="145" y="-5" type="line"/>
      <point x="224" y="99" type="line"/>
      <point x="224" y="636" type="line"/>
      <point x="333" y="689" type="line"/>
      <point x="17" y="680" type="line"/>
      <point x="17" y="618" type="line"/>
      <point x="92" y="598" type="line"/>
      <point x="92" y="0" type="line"/>
    </contour>
  </outline>
</glyph>
<glyph name="E" format="2">
  <advance width="540"/>
  <unicode hex="0045"/>
  <anchor x="477" y="10" name="ogonek"/>
  <anchor x="272" y="680" name="top"/>
  <anchor x="40" y="680" name="topleft"/>
  <anchor x="272" y="0" name="bottom"/>
  <outline>
    <contour>
      <point x="30" y="0" type="line"/>
      <point x="236" y="0" type="line"/>
      <point x="236" y="680" type="line"/>
      <point x="30" y="680" type="line"/>
      <point x="30" y="618" type="line"/>
      <point x="106" y="598" type="line"/>
      <point x="106" y="83" type="line"/>
      <point x="30" y="63" type="line"/>
    </contour>
    <contour>
      <point x="163" y="0" type="line"/>
      <point x="472" y="0" type="line"/>
      <point x="493" y="25" type="line"/>
      <point x="497" y="198" type="line"/>
      <point x="425" y="198" type="line"/>
      <point x="395" y="87" type="line"/>
      <point x="163" y="87" type="line"/>
    </contour>
    <contour>
      <point x="234" y="291" type="line"/>
      <point x="409" y="291" type="line"/>
      <point x="414" y="376" type="line"/>
      <point x="234" y="376" type="line"/>
    </contour>
    <contour>
      <point x="415" y="492" type="line"/>
      <point x="488" y="492" type="line"/>
      <point x="488" y="665" type="line"/>
      <point x="463" y="690" type="line"/>
      <point x="34" y="680" type="line"/>
      <point x="163" y="593" type="line"/>
      <point x="385" y="593" type="line"/>
    </contour>
  </outline>
</glyph>
<glyph name="F" format="2">
  <advance width="494"/>
  <unicode hex="0046"/>
  <outline>
    <contour>
      <point x="30" y="0" type="line"/>
      <point x="343" y="0" type="line"/>
      <point x="343" y="63" type="line"/>
      <point x="236" y="83" type="line"/>
      <point x="236" y="680" type="line"/>
      <point x="33" y="680" type="line"/>
      <point x="30" y="618" type="line"/>
      <point x="106" y="598" type="line"/>
      <point x="106" y="83" type="line"/>
      <point x="30" y="63" type="line"/>
    </contour>
    <contour>
      <point x="234" y="286" type="line"/>
      <point x="431" y="286" type="line"/>
      <point x="436" y="368" type="line"/>
      <point x="234" y="368" type="line"/>
    </contour>
    <contour>
      <point x="420" y="492" type="line"/>
      <point x="492" y="492" type="line"/>
      <point x="492" y="665" type="line"/>
      <point x="467" y="690" type="line"/>
      <point x="37" y="680" type="line"/>
      <point x="163" y="593" type="line"/>
      <point x="390" y="593" type="line"/>
    </contour>
  </outline>
</glyph>
<glyph name="G" format="2">
  <advance width="538"/>
  <unicode hex="0047"/>
  <outline>
    <contour>
      <point x="256" y="-10" type="curve" smooth="yes"/>
      <point x="291" y="-10"/>
      <point x="327" y="-8"/>
      <point x="347" y="-3" type="curve"/>
      <point x="388" y="62" type="line"/>
      <point x="424" y="-6" type="line"/>
      <point x="498" y="3" type="line"/>
      <point x="498" y="313" type="line"/>
      <point x="463" y="348" type="line"/>
      <point x="298" y="338" type="line"/>
      <point x="298" y="274" type="line"/>
      <point x="380" y="261" type="line"/>
      <point x="380" y="81" type="line"/>
      <point x="395" y="108" type="line"/>
      <point x="371" y="96"/>
      <point x="330" y="94"/>
      <point x="288" y="94" type="curve" smooth="yes"/>
      <point x="220" y="94"/>
      <point x="182" y="131"/>
      <point x="182" y="217" type="curve" smooth="yes"/>
      <point x="182" y="605" type="line"/>
      <point x="166" y="565" type="line"/>
      <point x="197" y="578"/>
      <point x="240" y="584"/>
      <point x="283" y="584" type="curve" smooth="yes"/>
      <point x="323" y="584"/>
      <point x="376" y="578"/>
      <point x="408" y="564" type="curve"/>
      <point x="373" y="624" type="line"/>
      <point x="393" y="458" type="line"/>
      <point x="475" y="458" type="line"/>
      <point x="495" y="639" type="line"/>
      <point x="461" y="667"/>
      <point x="377" y="690"/>
      <point x="289" y="690" type="curve" smooth="yes"/>
      <point x="230" y="690"/>
      <point x="175" y="684"/>
      <point x="138" y="676" type="curve"/>
      <point x="54" y="586" type="line"/>
      <point x="54" y="191" type="line" smooth="yes"/>
      <point x="54" y="60"/>
      <point x="140" y="-10"/>
    </contour>
  </outline>
</glyph>
<glyph name="H" format="2">
  <advance width="674"/>
  <unicode hex="0048"/>
  <outline>
    <contour>
      <point x="203" y="289" type="line"/>
      <point x="467" y="289" type="line"/>
      <point x="467" y="374" type="line"/>
      <point x="203" y="374" type="line"/>
    </contour>
    <contour>
      <point x="30" y="0" type="line"/>
      <point x="293" y="0" type="line"/>
      <point x="293" y="63" type="line"/>
      <point x="234" y="83" type="line"/>
      <point x="234" y="598" type="line"/>
      <point x="293" y="618" type="line"/>
      <point x="293" y="680" type="line"/>
      <point x="30" y="680" type="line"/>
      <point x="30" y="618" type="line"/>
      <point x="106" y="598" type="line"/>
      <point x="106" y="83" type="line"/>
      <point x="30" y="63" type="line"/>
    </contour>
    <contour>
      <point x="382" y="0" type="line"/>
      <point x="644" y="0" type="line"/>
      <point x="644" y="63" type="line"/>
      <point x="569" y="83" type="line"/>
      <point x="569" y="598" type="line"/>
      <point x="644" y="618" type="line"/>
      <point x="644" y="680" type="line"/>
      <point x="382" y="680" type="line"/>
      <point x="382" y="618" type="line"/>
      <point x="440" y="598" type="line"/>
      <point x="440" y="83" type="line"/>
      <point x="382" y="63" type="line"/>
    </contour>
  </outline>
</glyph>
<glyph name="I" format="2">
  <advance width="343"/>
  <unicode hex="0049"/>
  <anchor x="307" y="10" name="ogonek"/>
  <anchor x="171" y="680" name="top"/>
  <anchor x="22" y="680" name="topleft"/>
  <anchor x="171" y="0" name="bottom"/>
  <outline>
    <contour>
      <point x="30" y="0" type="line"/>
      <point x="313" y="0" type="line"/>
      <point x="313" y="63" type="line"/>
      <point x="237" y="83" type="line"/>
      <point x="237" y="598" type="line"/>
      <point x="313" y="618" type="line"/>
      <point x="313" y="680" type="line"/>
      <point x="30" y="680" type="line"/>
      <point x="30" y="618" type="line"/>
      <point x="106" y="598" type="line"/>
      <point x="106" y="83" type="line"/>
      <point x="30" y="63" type="line"/>
    </contour>
  </outline>
</glyph>
<glyph name="J" format="2">
  <advance width="389"/>
  <unicode hex="004A"/>
  <outline>
    <contour>
      <point x="175" y="598" type="line"/>
      <point x="175" y="189" type="line" smooth="yes"/>
      <point x="175" y="113"/>
      <point x="153" y="89"/>
      <point x="97" y="89" type="curve" smooth="yes"/>
      <point x="76" y="89"/>
      <point x="48" y="88"/>
      <point x="20" y="92" type="curve"/>
      <point x="20" y="17" type="line"/>
      <point x="91" y="-7" type="line"/>
      <point x="106" y="-9"/>
      <point x="129" y="-10"/>
      <point x="146" y="-10" type="curve" smooth="yes"/>
      <point x="262" y="-10"/>
      <point x="304" y="80"/>
      <point x="304" y="186" type="curve" smooth="yes"/>
      <point x="304" y="598" type="line"/>
      <point x="379" y="618" type="line"/>
      <point x="379" y="680" type="line"/>
      <point x="87" y="680" type="line"/>
      <point x="87" y="618" type="line"/>
    </contour>
  </outline>
</glyph>
<glyph name="K" format="2">
  <advance width="624"/>
  <unicode hex="004B"/>
  <outline>
    <contour>
      <point x="288" y="680" type="line"/>
      <point x="30" y="680" type="line"/>
      <point x="30" y="618" type="line"/>
      <point x="106" y="598" type="line"/>
      <point x="106" y="83" type="line"/>
      <point x="30" y="63" type="line"/>
      <point x="30" y="0" type="line"/>
      <point x="288" y="0" type="line"/>
      <point x="288" y="63" type="line"/>
      <point x="234" y="83" type="line"/>
      <point x="234" y="598" type="line"/>
      <point x="288" y="618" type="line"/>
    </contour>
    <contour>
      <point x="503" y="-10" type="curve"/>
      <point x="611" y="7" type="line"/>
      <point x="611" y="70" type="line"/>
      <point x="550" y="88" type="line"/>
      <point x="433" y="331" type="line"/>
      <point x="366" y="355" type="line"/>
      <point x="293" y="320" type="line"/>
      <point x="406" y="84" type="line" smooth="yes"/>
      <point x="435" y="26"/>
      <point x="455" y="1"/>
    </contour>
    <contour>
      <point x="200" y="282" type="line"/>
      <point x="325" y="282" type="line"/>
      <point x="583" y="604" type="line"/>
      <point x="572" y="681" type="line"/>
      <point x="379" y="680" type="line"/>
      <point x="375" y="618" type="line"/>
      <point x="445" y="598" type="line"/>
      <point x="309" y="363" type="line"/>
      <point x="200" y="363" type="line"/>
    </contour>
  </outline>
</glyph>
<glyph name="L" format="2">
  <advance width="523"/>
  <unicode hex="004C"/>
  <outline>
    <contour>
      <point x="68" y="0" type="line"/>
      <point x="475" y="0" type="line"/>
      <point x="499" y="25" type="line"/>
      <point x="499" y="191" type="line"/>
      <point x="430" y="191" type="line"/>
      <point x="400" y="87" type="line"/>
      <point x="163" y="87" type="line"/>
    </contour>
    <contour>
      <point x="312" y="680" type="line"/>
      <point x="30" y="680" type="line"/>
      <point x="30" y="618" type="line"/>
      <point x="106" y="598" type="line"/>
      <point x="106" y="83" type="line"/>
      <point x="30" y="63" type="line"/>
      <point x="30" y="0" type="line"/>
      <point x="236" y="0" type="line"/>
      <point x="236" y="598" type="line"/>
      <point x="312" y="618" type="line"/>
    </contour>
  </outline>
</glyph>
<glyph name="M" format="2">
  <advance width="787"/>
  <unicode hex="004D"/>
  <outline>
    <contour>
      <point x="30" y="0" type="line"/>
      <point x="256" y="0" type="line"/>
      <point x="255" y="63" type="line"/>
      <point x="201" y="84" type="line"/>
      <point x="201" y="556" type="line"/>
      <point x="173" y="540" type="line"/>
      <point x="343" y="79" type="line"/>
      <point x="414" y="88" type="line"/>
      <point x="578" y="528" type="line"/>
      <point x="554" y="527" type="line"/>
      <point x="554" y="82" type="line"/>
      <point x="500" y="63" type="line"/>
      <point x="499" y="0" type="line"/>
      <point x="757" y="0" type="line"/>
      <point x="757" y="63" type="line"/>
      <point x="682" y="83" type="line"/>
      <point x="682" y="598" type="line"/>
      <point x="757" y="618" type="line"/>
      <point x="757" y="680" type="line"/>
      <point x="536" y="680" type="line"/>
      <point x="378" y="218" type="line"/>
      <point x="416" y="215" type="line"/>
      <point x="252" y="680" type="line"/>
      <point x="30" y="680" type="line"/>
      <point x="30" y="619" type="line"/>
      <point x="106" y="599" type="line"/>
      <point x="106" y="86" type="line"/>
      <point x="30" y="63" type="line"/>
    </contour>
  </outline>
</glyph>
<glyph name="N" format="2">
  <advance width="650"/>
  <unicode hex="004E"/>
  <anchor x="339" y="680" name="top"/>
  <anchor x="327" y="0" name="bottom"/>
  <outline>
    <contour>
      <point x="630" y="680" type="line"/>
      <point x="400" y="680" type="line"/>
      <point x="400" y="618" type="line"/>
      <point x="459" y="598" type="line"/>
      <point x="462" y="107" type="line"/>
      <point x="505" y="104" type="line"/>
      <point x="238" y="680" type="line"/>
      <point x="30" y="680" type="line"/>
      <point x="30" y="618" type="line"/>
      <point x="106" y="598" type="line"/>
      <point x="106" y="83" type="line"/>
      <point x="30" y="63" type="line"/>
      <point x="30" y="0" type="line"/>
      <point x="277" y="0" type="line"/>
      <point x="276" y="63" type="line"/>
      <point x="208" y="83" type="line"/>
      <point x="201" y="546" type="line"/>
      <point x="170" y="535" type="line"/>
      <point x="432" y="-6" type="line"/>
      <point x="555" y="3" type="line"/>
      <point x="555" y="598" type="line"/>
      <point x="630" y="618" type="line"/>
    </contour>
  </outline>
</glyph>
<glyph name="O" format="2">
  <advance width="555"/>
  <unicode hex="004F"/>
  <anchor x="278" y="0" name="bottom"/>
  <anchor x="491" y="10" name="ogonek"/>
  <anchor x="278" y="680" name="top"/>
  <anchor x="524" y="680" name="topright"/>
  <anchor x="31" y="680" name="topleft"/>
  <anchor x="278" y="340" name="center"/>
  <outline>
    <contour>
      <point x="265" y="-10" type="curve" smooth="yes"/>
      <point x="324" y="-10"/>
      <point x="388" y="-3"/>
      <point x="415" y="5" type="curve"/>
      <point x="501" y="96" type="line"/>
      <point x="501" y="520" type="line" smooth="yes"/>
      <point x="501" y="643"/>
      <point x="406" y="689"/>
      <point x="287" y="689" type="curve" smooth="yes"/>
      <point x="235" y="689"/>
      <point x="171" y="682"/>
      <point x="140" y="676" type="curve"/>
      <point x="54" y="583" type="line"/>
      <point x="54" y="173" type="line" smooth="yes"/>
      <point x="54" y="46"/>
      <point x="144" y="-10"/>
    </contour>
    <contour>
      <point x="372" y="86" type="line"/>
      <point x="386" y="110" type="line"/>
      <point x="365" y="100"/>
      <point x="320" y="94"/>
      <point x="278" y="94" type="curve" smooth="yes"/>
      <point x="220" y="94"/>
      <point x="182" y="118"/>
      <point x="182" y="188" type="curve" smooth="yes"/>
      <point x="182" y="593" type="line"/>
      <point x="168" y="570" type="line"/>
      <point x="191" y="579"/>
      <point x="232" y="586"/>
      <point x="269" y="586" type="curve" smooth="yes"/>
      <point x="331" y="586"/>
      <point x="372" y="566"/>
      <point x="372" y="504" type="curve" smooth="yes"/>
    </contour>
  </outline>
</glyph>
<glyph name="P" format="2">
  <advance width="576"/>
  <unicode hex="0050"/>
  <outline>
    <contour>
      <point x="30" y="0" type="line"/>
      <point x="336" y="0" type="line"/>
      <point x="336" y="63" type="line"/>
      <point x="234" y="83" type="line"/>
      <point x="233" y="618" type="line"/>
      <point x="323" y="689" type="line"/>
      <point x="30" y="680" type="line"/>
      <point x="30" y="618" type="line"/>
      <point x="106" y="598" type="line"/>
      <point x="106" y="83" type="line"/>
      <point x="30" y="63" type="line"/>
    </contour>
    <contour>
      <point x="350" y="200" type="curve" smooth="yes"/>
      <point x="387" y="200"/>
      <point x="426" y="205"/>
      <point x="449" y="213" type="curve"/>
      <point x="535" y="303" type="line"/>
      <point x="535" y="518" type="line" smooth="yes"/>
      <point x="535" y="637"/>
      <point x="437" y="689"/>
      <point x="330" y="689" type="curve" smooth="yes"/>
      <point x="294" y="689"/>
      <point x="250" y="678"/>
      <point x="222" y="670" type="curve"/>
      <point x="217" y="578" type="line"/>
      <point x="238" y="583"/>
      <point x="277" y="586"/>
      <point x="315" y="586" type="curve" smooth="yes"/>
      <point x="367" y="586"/>
      <point x="404" y="556"/>
      <point x="404" y="498" type="curve" smooth="yes"/>
      <point x="404" y="291" type="line"/>
      <point x="419" y="313" type="line"/>
      <point x="395" y="303"/>
      <point x="358" y="298"/>
      <point x="325" y="298" type="curve" smooth="yes"/>
      <point x="284" y="298"/>
      <point x="248" y="300"/>
      <point x="217" y="308" type="curve"/>
      <point x="187" y="229" type="line"/>
      <point x="221" y="216"/>
      <point x="288" y="200"/>
    </contour>
  </outline>
</glyph>
<glyph name="Q" format="2">
  <advance width="558"/>
  <unicode hex="0051"/>
  <outline>
    <contour>
      <point x="384" y="-184" type="curve" smooth="yes"/>
      <point x="415" y="-184"/>
      <point x="453" y="-164"/>
      <point x="505" y="-144" type="curve"/>
      <point x="498" y="-75" type="line"/>
      <point x="413" y="-75" type="line"/>
      <point x="250" y="-10" type="line"/>
      <point x="203" y="10" type="line"/>
      <point x="164" y="-59" type="line"/>
      <point x="245" y="-127"/>
      <point x="344" y="-184"/>
    </contour>
    <component base="O"/>
  </outline>
</glyph>
<glyph name="R" format="2">
  <advance width="609"/>
  <unicode hex="0052"/>
  <outline>
    <contour>
      <point x="30" y="0" type="line"/>
      <point x="288" y="0" type="line"/>
      <point x="288" y="63" type="line"/>
      <point x="234" y="83" type="line"/>
      <point x="234" y="618" type="line"/>
      <point x="318" y="689" type="line"/>
      <point x="30" y="680" type="line"/>
      <point x="30" y="618" type="line"/>
      <point x="106" y="598" type="line"/>
      <point x="106" y="83" type="line"/>
      <point x="30" y="63" type="line"/>
    </contour>
    <contour>
      <point x="491" y="-10" type="curve"/>
      <point x="604" y="7" type="line"/>
      <point x="604" y="70" type="line"/>
      <point x="542" y="88" type="line"/>
      <point x="473" y="259" type="line"/>
      <point x="416" y="281" type="line"/>
      <point x="336" y="259" type="line"/>
      <point x="399" y="84" type="line" smooth="yes"/>
      <point x="422" y="25"/>
      <point x="439" y="5"/>
    </contour>
    <contour>
      <point x="196" y="256" type="line"/>
      <point x="357" y="256" type="line"/>
      <point x="430" y="272" type="line"/>
      <point x="525" y="357" type="line"/>
      <point x="529" y="403"/>
      <point x="531" y="448"/>
      <point x="531" y="500" type="curve" smooth="yes"/>
      <point x="531" y="625"/>
      <point x="458" y="689"/>
      <point x="325" y="689" type="curve" smooth="yes"/>
      <point x="296" y="689"/>
      <point x="225" y="676"/>
      <point x="188" y="665" type="curve"/>
      <point x="188" y="574" type="line"/>
      <point x="219" y="582"/>
      <point x="264" y="586"/>
      <point x="311" y="586" type="curve" smooth="yes"/>
      <point x="377" y="586"/>
      <point x="403" y="551"/>
      <point x="403" y="479" type="curve" smooth="yes"/>
      <point x="403" y="425"/>
      <point x="400" y="373"/>
      <point x="396" y="326" type="curve"/>
      <point x="418" y="345" type="line"/>
      <point x="393" y="339"/>
      <point x="329" y="336"/>
      <point x="275" y="336" type="curve" smooth="yes"/>
      <point x="217" y="336" type="line"/>
    </contour>
  </outline>
</glyph>
<glyph name="S" format="2">
  <advance width="513"/>
  <unicode hex="0053"/>
  <outline>
    <contour>
      <point x="250" y="-10" type="curve" smooth="yes"/>
      <point x="318" y="-10"/>
      <point x="368" y="9"/>
      <point x="400" y="35" type="curve"/>
      <point x="476" y="122" type="line"/>
      <point x="476" y="183" type="line" smooth="yes"/>
      <point x="476" y="303"/>
      <point x="382" y="357"/>
      <point x="294" y="394" type="curve" smooth="yes"/>
      <point x="226" y="422"/>
      <point x="166" y="449"/>
      <point x="166" y="525" type="curve" smooth="yes"/>
      <point x="166" y="568" type="line"/>
      <point x="152" y="533" type="line"/>
      <point x="170" y="565"/>
      <point x="214" y="587"/>
      <point x="266" y="587" type="curve" smooth="yes"/>
      <point x="312" y="587"/>
      <point x="344" y="582"/>
      <point x="376" y="565" type="curve"/>
      <point x="349" y="606" type="line"/>
      <point x="370" y="467" type="line"/>
      <point x="445" y="467" type="line"/>
      <point x="465" y="635" type="line"/>
      <point x="429" y="665"/>
      <point x="362" y="689"/>
      <point x="275" y="689" type="curve" smooth="yes"/>
      <point x="201" y="689"/>
      <point x="135" y="665"/>
      <point x="100" y="624" type="curve"/>
      <point x="41" y="553" type="line"/>
      <point x="41" y="485" type="line" smooth="yes"/>
      <point x="41" y="384"/>
      <point x="122" y="336"/>
      <point x="200" y="303" type="curve" smooth="yes"/>
      <point x="277" y="269"/>
      <point x="351" y="231"/>
      <point x="351" y="143" type="curve" smooth="yes"/>
      <point x="351" y="79" type="line"/>
      <point x="369" y="125" type="line"/>
      <point x="345" y="104"/>
      <point x="297" y="92"/>
      <point x="248" y="92" type="curve" smooth="yes"/>
      <point x="196" y="92"/>
      <point x="150" y="102"/>
      <point x="116" y="126" type="curve"/>
      <point x="155" y="81" type="line"/>
      <point x="133" y="210" type="line"/>
      <point x="57" y="210" type="line"/>
      <point x="37" y="46" type="line"/>
      <point x="88" y="10"/>
      <point x="170" y="-10"/>
    </contour>
  </outline>
</glyph>
<glyph name="T" format="2">
  <advance width="581"/>
  <unicode hex="0054"/>
  <outline>
    <contour>
      <point x="132" y="0" type="line"/>
      <point x="449" y="0" type="line"/>
      <point x="449" y="56" type="line"/>
      <point x="357" y="83" type="line"/>
      <point x="357" y="593" type="line"/>
      <point x="454" y="593" type="line"/>
      <point x="480" y="472" type="line"/>
      <point x="549" y="472" type="line"/>
      <point x="552" y="660" type="line"/>
      <point x="527" y="685" type="line"/>
      <point x="290" y="680" type="line"/>
      <point x="53" y="685" type="line"/>
      <point x="28" y="660" type="line"/>
      <point x="32" y="472" type="line"/>
      <point x="101" y="472" type="line"/>
      <point x="127" y="593" type="line"/>
      <point x="224" y="593" type="line"/>
      <point x="224" y="83" type="line"/>
      <point x="132" y="56" type="line"/>
    </contour>
  </outline>
</glyph>
<glyph name="U" format="2">
  <advance width="630"/>
  <unicode hex="0055"/>
  <anchor x="546" y="10" name="ogonek"/>
  <anchor x="318" y="680" name="top"/>
  <anchor x="585" y="680" name="topright"/>
  <anchor x="310" y="0" name="bottom"/>
  <outline>
    <contour>
      <point x="315" y="-10" type="curve" smooth="yes"/>
      <point x="368" y="-10"/>
      <point x="433" y="-2"/>
      <point x="460" y="8" type="curve"/>
      <point x="546" y="96" type="line"/>
      <point x="546" y="600" type="line"/>
      <point x="618" y="618" type="line"/>
      <point x="618" y="680" type="line"/>
      <point x="367" y="680" type="line"/>
      <point x="367" y="618" type="line"/>
      <point x="425" y="600" type="line"/>
      <point x="425" y="113" type="line"/>
      <point x="406" y="100"/>
      <point x="359" y="94"/>
      <point x="331" y="94" type="curve" smooth="yes"/>
      <point x="274" y="94"/>
      <point x="226" y="121"/>
      <point x="226" y="188" type="curve" smooth="yes"/>
      <point x="226" y="680" type="line"/>
      <point x="22" y="680" type="line"/>
      <point x="22" y="618" type="line"/>
      <point x="97" y="601" type="line"/>
      <point x="98" y="192" type="line" smooth="yes"/>
      <point x="98" y="58"/>
      <point x="182" y="-10"/>
    </contour>
  </outline>
</glyph>
<glyph name="V" format="2">
  <advance width="662"/>
  <unicode hex="0056"/>
  <outline>
    <contour>
      <point x="264" y="-8" type="line"/>
      <point x="408" y="0" type="line"/>
      <point x="582" y="598" type="line"/>
      <point x="652" y="618" type="line"/>
      <point x="652" y="680" type="line"/>
      <point x="404" y="680" type="line"/>
      <point x="404" y="618" type="line"/>
      <point x="478" y="598" type="line"/>
      <point x="349" y="109" type="line"/>
      <point x="313" y="101" type="line"/>
      <point x="256" y="23" type="line"/>
    </contour>
    <contour>
      <point x="256" y="23" type="line"/>
      <point x="375" y="47" type="line"/>
      <point x="231" y="600" type="line"/>
      <point x="288" y="618" type="line"/>
      <point x="288" y="680" type="line"/>
      <point x="17" y="680" type="line"/>
      <point x="17" y="618" type="line"/>
      <point x="87" y="598" type="line"/>
    </contour>
  </outline>
</glyph>
<glyph name="W" format="2">
  <advance width="963"/>
  <unicode hex="0057"/>
  <outline>
    <contour>
      <point x="17" y="618" type="line"/>
      <point x="87" y="598" type="line"/>
      <point x="236" y="-5" type="line"/>
      <point x="388" y="0" type="line"/>
      <point x="503" y="560" type="line"/>
      <point x="462" y="562" type="line"/>
      <point x="578" y="-5" type="line"/>
      <point x="734" y="0" type="line"/>
      <point x="883" y="598" type="line"/>
      <point x="954" y="618" type="line"/>
      <point x="954" y="680" type="line"/>
      <point x="705" y="680" type="line"/>
      <point x="705" y="618" type="line"/>
      <point x="778" y="598" type="line"/>
      <point x="654" y="76" type="line"/>
      <point x="684" y="76" type="line"/>
      <point x="553" y="684" type="line"/>
      <point x="431" y="680" type="line"/>
      <point x="302" y="76" type="line"/>
      <point x="332" y="77" type="line"/>
      <point x="222" y="610" type="line"/>
      <point x="279" y="624" type="line"/>
      <point x="279" y="680" type="line"/>
      <point x="17" y="680" type="line"/>
    </contour>
  </outline>
</glyph>
<glyph name="X" format="2">
  <advance width="671"/>
  <unicode hex="0058"/>
  <outline>
    <contour>
      <point x="269" y="371" type="line"/>
      <point x="93" y="83" type="line"/>
      <point x="23" y="63" type="line"/>
      <point x="23" y="0" type="line"/>
      <point x="275" y="0" type="line"/>
      <point x="275" y="63" type="line"/>
      <point x="213" y="83" type="line"/>
      <point x="341" y="319" type="line"/>
    </contour>
    <contour>
      <point x="325" y="377" type="line"/>
      <point x="368" y="287" type="line"/>
      <point x="567" y="598" type="line"/>
      <point x="639" y="618" type="line"/>
      <point x="639" y="680" type="line"/>
      <point x="386" y="680" type="line"/>
      <point x="386" y="618" type="line"/>
      <point x="452" y="600" type="line"/>
    </contour>
    <contour>
      <point x="28" y="618" type="line"/>
      <point x="103" y="598" type="line"/>
      <point x="263" y="325" type="line"/>
      <point x="292" y="319" type="line"/>
      <point x="458" y="-7" type="line"/>
      <point x="647" y="0" type="line"/>
      <point x="647" y="66" type="line"/>
      <point x="575" y="85" type="line"/>
      <point x="401" y="372" type="line"/>
      <point x="373" y="380" type="line"/>
      <point x="220" y="687" type="line"/>
      <point x="28" y="680" type="line"/>
    </contour>
  </outline>
</glyph>
<glyph name="Y" format="2">
  <advance width="669"/>
  <unicode hex="0059"/>
  <outline>
    <contour>
      <point x="183" y="0" type="line"/>
      <point x="496" y="0" type="line"/>
      <point x="496" y="56" type="line"/>
      <point x="404" y="83" type="line"/>
      <point x="404" y="242" type="line"/>
      <point x="589" y="598" type="line"/>
      <point x="659" y="618" type="line"/>
      <point x="659" y="680" type="line"/>
      <point x="416" y="680" type="line"/>
      <point x="416" y="618" type="line"/>
      <point x="480" y="598" type="line"/>
      <point x="334" y="298" type="line"/>
      <point x="368" y="298" type="line"/>
      <point x="240" y="598" type="line"/>
      <point x="297" y="618" type="line"/>
      <point x="297" y="680" type="line"/>
      <point x="17" y="680" type="line"/>
      <point x="17" y="618" type="line"/>
      <point x="89" y="598" type="line"/>
      <point x="275" y="242" type="line"/>
      <point x="275" y="83" type="line"/>
      <point x="183" y="56" type="line"/>
    </contour>
  </outline>
</glyph>
<glyph name="Z" format="2">
  <advance width="599"/>
  <unicode hex="005A"/>
  <outline>
    <contour>
      <point x="54" y="76" type="line"/>
      <point x="88" y="0" type="line"/>
      <point x="435" y="0" type="line"/>
      <point x="518" y="-2" type="line"/>
      <point x="548" y="28" type="line"/>
      <point x="545" y="223" type="line"/>
      <point x="476" y="223" type="line"/>
      <point x="436" y="54" type="line"/>
      <point x="490" y="97" type="line"/>
      <point x="180" y="97" type="line"/>
      <point x="207" y="66" type="line"/>
      <point x="547" y="605" type="line"/>
      <point x="524" y="680" type="line"/>
      <point x="96" y="685" type="line"/>
      <point x="66" y="655" type="line"/>
      <point x="69" y="460" type="line"/>
      <point x="138" y="460" type="line"/>
      <point x="177" y="629" type="line"/>
      <point x="123" y="586" type="line"/>
      <point x="421" y="586" type="line"/>
      <point x="401" y="617" type="line"/>
    </contour>
  </outline>
</glyph>
<glyph name="a" format="2">
  <advance width="514"/>
  <unicode hex="0061"/>
  <anchor x="462" y="10" name="ogonek"/>
  <anchor x="257" y="0" name="bottom"/>
  <anchor x="254" y="540" name="top"/>
  <outline>
    <contour>
      <point x="387" y="-10" type="curve"/>
      <point x="499" y="20" type="line"/>
      <point x="499" y="76" type="line"/>
      <point x="432" y="93" type="line"/>
      <point x="433" y="429" type="line"/>
      <point x="420" y="505"/>
      <point x="350" y="549"/>
      <point x="266" y="549" type="curve" smooth="yes"/>
      <point x="214" y="549"/>
      <point x="173" y="539"/>
      <point x="139" y="526" type="curve"/>
      <point x="56" y="453" type="line"/>
      <point x="79" y="404" type="line"/>
      <point x="118" y="420"/>
      <point x="176" y="435"/>
      <point x="234" y="435" type="curve" smooth="yes"/>
      <point x="277" y="435"/>
      <point x="302" y="428"/>
      <point x="324" y="408" type="curve"/>
      <point x="308" y="469" type="line"/>
      <point x="307" y="95" type="line"/>
      <point x="307" y="37"/>
      <point x="337" y="2"/>
    </contour>
    <contour>
      <point x="192" y="-9" type="curve" smooth="yes"/>
      <point x="225" y="-9"/>
      <point x="251" y="-2"/>
      <point x="268" y="7" type="curve"/>
      <point x="328" y="100" type="line"/>
      <point x="316" y="131" type="line"/>
      <point x="297" y="109"/>
      <point x="273" y="92"/>
      <point x="235" y="92" type="curve" smooth="yes"/>
      <point x="192" y="92"/>
      <point x="172" y="123"/>
      <point x="172" y="176" type="curve" smooth="yes"/>
      <point x="172" y="191"/>
      <point x="172" y="204"/>
      <point x="176" y="218" type="curve"/>
      <point x="324" y="231" type="line"/>
      <point x="342" y="293" type="line"/>
      <point x="65" y="267" type="line"/>
      <point x="55" y="234"/>
      <point x="50" y="202"/>
      <point x="50" y="161" type="curve" smooth="yes"/>
      <point x="50" y="57"/>
      <point x="105" y="-9"/>
    </contour>
  </outline>
</glyph>
<glyph name="b" format="2">
  <advance width="551"/>
  <unicode hex="0062"/>
  <outline>
    <contour>
      <point x="315" y="-9" type="curve" smooth="yes"/>
      <point x="354" y="-9"/>
      <point x="380" y="-1"/>
      <point x="402" y="9" type="curve"/>
      <point x="481" y="102" type="line"/>
      <point x="484" y="200"/>
      <point x="484" y="286"/>
      <point x="484" y="388" type="curve" smooth="yes"/>
      <point x="484" y="502"/>
      <point x="417" y="549"/>
      <point x="324" y="549" type="curve" smooth="yes"/>
      <point x="295" y="549"/>
      <point x="268" y="544"/>
      <point x="254" y="539" type="curve"/>
      <point x="192" y="442" type="line"/>
      <point x="192" y="423" type="line"/>
      <point x="219" y="437"/>
      <point x="250" y="445"/>
      <point x="285" y="445" type="curve" smooth="yes"/>
      <point x="336" y="445"/>
      <point x="363" y="420"/>
      <point x="363" y="361" type="curve" smooth="yes"/>
      <point x="363" y="264"/>
      <point x="362" y="184"/>
      <point x="359" y="93" type="curve"/>
      <point x="375" y="116" type="line"/>
      <point x="354" y="100"/>
      <point x="324" y="94"/>
      <point x="289" y="94" type="curve" smooth="yes"/>
      <point x="252" y="94"/>
      <point x="225" y="107"/>
      <point x="203" y="126" type="curve"/>
      <point x="159" y="78" type="line"/>
      <point x="201" y="23"/>
      <point x="248" y="-9"/>
    </contour>
    <contour>
      <point x="143" y="0" type="line"/>
      <point x="216" y="106" type="line"/>
      <point x="216" y="456" type="line"/>
      <point x="212" y="468" type="line"/>
      <point x="212" y="722" type="line"/>
      <point x="188" y="747" type="line"/>
      <point x="20" y="719" type="line"/>
      <point x="20" y="666" type="line"/>
      <point x="91" y="643" type="line"/>
      <point x="91" y="5" type="line"/>
    </contour>
  </outline>
</glyph>
<glyph name="c" format="2">
  <advance width="427"/>
  <unicode hex="0063"/>
  <outline>
    <contour>
      <point x="260" y="-10" type="curve" smooth="yes"/>
      <point x="283" y="-10"/>
      <point x="312" y="-6"/>
      <point x="331" y="0" type="curve"/>
      <point x="414" y="39" type="line"/>
      <point x="411" y="111" type="line"/>
      <point x="378" y="104"/>
      <point x="335" y="95"/>
      <point x="295" y="95" type="curve" smooth="yes"/>
      <point x="226" y="95"/>
      <point x="189" y="134"/>
      <point x="189" y="197" type="curve" smooth="yes"/>
      <point x="189" y="450" type="line"/>
      <point x="174" y="421" type="line"/>
      <point x="197" y="432"/>
      <point x="248" y="437"/>
      <point x="282" y="437" type="curve" smooth="yes"/>
      <point x="324" y="437"/>
      <point x="359" y="433"/>
      <point x="386" y="428" type="curve"/>
      <point x="409" y="535" type="line"/>
      <point x="377" y="543"/>
      <point x="329" y="549"/>
      <point x="277" y="549" type="curve" smooth="yes"/>
      <point x="233" y="549"/>
      <point x="179" y="544"/>
      <point x="147" y="537" type="curve"/>
      <point x="67" y="444" type="line"/>
      <point x="67" y="169" type="line" smooth="yes"/>
      <point x="67" y="39"/>
      <point x="166" y="-10"/>
    </contour>
  </outline>
</glyph>
<glyph name="d" format="2">
  <advance width="521"/>
  <unicode hex="0064"/>
  <outline>
    <contour>
      <point x="229" y="-9" type="curve" smooth="yes"/>
      <point x="291" y="-9"/>
      <point x="349" y="31"/>
      <point x="390" y="81" type="curve"/>
      <point x="348" y="126" type="line"/>
      <point x="326" y="108"/>
      <point x="299" y="94"/>
      <point x="262" y="94" type="curve" smooth="yes"/>
      <point x="227" y="94"/>
      <point x="197" y="102"/>
      <point x="178" y="121" type="curve"/>
      <point x="192" y="89" type="line"/>
      <point x="189" y="180"/>
      <point x="188" y="263"/>
      <point x="188" y="351" type="curve" smooth="yes"/>
      <point x="188" y="421"/>
      <point x="219" y="445"/>
      <point x="269" y="445" type="curve" smooth="yes"/>
      <point x="303" y="445"/>
      <point x="333" y="436"/>
      <point x="354" y="423" type="curve"/>
      <point x="359" y="446" type="line"/>
      <point x="296" y="539" type="line"/>
      <point x="285" y="544"/>
      <point x="258" y="549"/>
      <point x="232" y="549" type="curve" smooth="yes"/>
      <point x="141" y="549"/>
      <point x="67" y="500"/>
      <point x="67" y="383" type="curve" smooth="yes"/>
      <point x="67" y="286"/>
      <point x="67" y="195"/>
      <point x="70" y="95" type="curve"/>
      <point x="150" y="6" type="line"/>
      <point x="172" y="-2"/>
      <point x="194" y="-9"/>
    </contour>
    <contour>
      <point x="408" y="0" type="line"/>
      <point x="461" y="5" type="line"/>
      <point x="461" y="722" type="line"/>
      <point x="436" y="747" type="line"/>
      <point x="268" y="719" type="line"/>
      <point x="268" y="666" type="line"/>
      <point x="339" y="643" type="line"/>
      <point x="339" y="469" type="line"/>
      <point x="336" y="457" type="line"/>
      <point x="336" y="106" type="line"/>
    </contour>
  </outline>
</glyph>
<glyph name="e" format="2">
  <advance width="469"/>
  <unicode hex="0065"/>
  <anchor x="422" y="10" name="ogonek"/>
  <anchor x="235" y="0" name="bottom"/>
  <anchor x="243" y="540" name="top"/>
  <outline>
    <contour>
      <point x="261" y="-10" type="curve" smooth="yes"/>
      <point x="306" y="-10"/>
      <point x="341" y="2"/>
      <point x="369" y="13" type="curve"/>
      <point x="454" y="77" type="line"/>
      <point x="430" y="129" type="line"/>
      <point x="400" y="115"/>
      <point x="342" y="93"/>
      <point x="291" y="93" type="curve" smooth="yes"/>
      <point x="230" y="93"/>
      <point x="192" y="125"/>
      <point x="192" y="191" type="curve" smooth="yes"/>
      <point x="192" y="454" type="line"/>
      <point x="179" y="432" type="line"/>
      <point x="203" y="444"/>
      <point x="231" y="451"/>
      <point x="265" y="451" type="curve" smooth="yes"/>
      <point x="303" y="451"/>
      <point x="330" y="443"/>
      <point x="352" y="420" type="curve"/>
      <point x="331" y="461" type="line"/>
      <point x="332" y="305" type="line"/>
      <point x="170" y="300" type="line"/>
      <point x="170" y="238" type="line"/>
      <point x="402" y="235" type="line"/>
      <point x="445" y="284" type="line"/>
      <point x="445" y="397" type="line" smooth="yes"/>
      <point x="445" y="486"/>
      <point x="383" y="550"/>
      <point x="270" y="550" type="curve" smooth="yes"/>
      <point x="220" y="550"/>
      <point x="180" y="541"/>
      <point x="146" y="532" type="curve"/>
      <point x="67" y="444" type="line"/>
      <point x="67" y="187" type="line" smooth="yes"/>
      <point x="67" y="50"/>
      <point x="151" y="-10"/>
    </contour>
  </outline>
</glyph>
<glyph name="f" format="2">
  <advance width="376"/>
  <unicode hex="0066"/>
  <outline>
    <contour>
      <point x="130" y="-10" type="line"/>
      <point x="230" y="0" type="line"/>
      <point x="230" y="437" type="line"/>
      <point x="227" y="455" type="line"/>
      <point x="217" y="653" type="line"/>
      <point x="211" y="616" type="line"/>
      <point x="234" y="628"/>
      <point x="272" y="634"/>
      <point x="308" y="634" type="curve" smooth="yes"/>
      <point x="336" y="634"/>
      <point x="363" y="630"/>
      <point x="382" y="625" type="curve"/>
      <point x="406" y="732" type="line"/>
      <point x="381" y="740"/>
      <point x="352" y="745"/>
      <point x="309" y="745" type="curve" smooth="yes"/>
      <point x="261" y="745"/>
      <point x="216" y="738"/>
      <point x="184" y="730" type="curve"/>
      <point x="105" y="640" type="line"/>
      <point x="105" y="15" type="line"/>
    </contour>
    <contour>
      <point x="346" y="398" type="line"/>
      <point x="373" y="419" type="line"/>
      <point x="373" y="487" type="line"/>
      <point x="52" y="478" type="line"/>
      <point x="35" y="461" type="line"/>
      <point x="39" y="403" type="line"/>
    </contour>
  </outline>
</glyph>
<glyph name="g" format="2">
  <advance width="506"/>
  <unicode hex="0067"/>
  <outline>
    <contour>
      <point x="258" y="61" type="curve" smooth="yes"/>
      <point x="308" y="61"/>
      <point x="352" y="67"/>
      <point x="377" y="75" type="curve"/>
      <point x="456" y="168" type="line"/>
      <point x="456" y="550" type="line"/>
      <point x="406" y="550" type="line"/>
      <point x="334" y="439" type="line"/>
      <point x="334" y="149" type="line"/>
      <point x="348" y="170" type="line"/>
      <point x="327" y="160"/>
      <point x="307" y="156"/>
      <point x="269" y="156" type="curve" smooth="yes"/>
      <point x="211" y="156"/>
      <point x="187" y="185"/>
      <point x="187" y="245" type="curve" smooth="yes"/>
      <point x="187" y="456" type="line"/>
      <point x="171" y="433" type="line"/>
      <point x="196" y="446"/>
      <point x="223" y="451"/>
      <point x="259" y="451" type="curve" smooth="yes"/>
      <point x="303" y="451"/>
      <point x="334" y="435"/>
      <point x="350" y="423" type="curve"/>
      <point x="394" y="471" type="line"/>
      <point x="355" y="521"/>
      <point x="299" y="550"/>
      <point x="236" y="550" type="curve" smooth="yes"/>
      <point x="193" y="550"/>
      <point x="163" y="544"/>
      <point x="144" y="536" type="curve"/>
      <point x="65" y="444" type="line"/>
      <point x="65" y="235" type="line" smooth="yes"/>
      <point x="65" y="116"/>
      <point x="142" y="61"/>
    </contour>
    <contour>
      <point x="416" y="-203" type="line"/>
      <point x="472" y="-200" type="line"/>
      <point x="495" y="-117" type="line"/>
      <point x="482" y="-72"/>
      <point x="447" y="-43"/>
      <point x="386" y="-43" type="curve" smooth="yes"/>
      <point x="126" y="-44" type="line"/>
      <point x="181" y="-62" type="line"/>
      <point x="169" y="-45" type="line"/>
      <point x="168" y="7"/>
      <point x="182" y="61"/>
      <point x="195" y="95" type="curve"/>
      <point x="154" y="109" type="line"/>
      <point x="62" y="-5" type="line"/>
      <point x="52" y="-23"/>
      <point x="47" y="-41"/>
      <point x="47" y="-63" type="curve" smooth="yes"/>
      <point x="47" y="-107"/>
      <point x="70" y="-141"/>
      <point x="114" y="-158" type="curve"/>
      <point x="390" y="-157" type="line"/>
    </contour>
  </outline>
</glyph>
<glyph name="h" format="2">
  <advance width="567"/>
  <unicode hex="0068"/>
  <outline>
    <contour>
      <point x="436" y="-10" type="curve"/>
      <point x="552" y="20" type="line"/>
      <point x="552" y="76" type="line"/>
      <point x="482" y="93" type="line"/>
      <point x="482" y="430" type="line" smooth="yes"/>
      <point x="482" y="501"/>
      <point x="427" y="547"/>
      <point x="347" y="547" type="curve" smooth="yes"/>
      <point x="314" y="547"/>
      <point x="291" y="543"/>
      <point x="270" y="536" type="curve"/>
      <point x="209" y="466" type="line"/>
      <point x="198" y="398" type="line"/>
      <point x="218" y="419"/>
      <point x="261" y="433"/>
      <point x="297" y="433" type="curve" smooth="yes"/>
      <point x="323" y="433"/>
      <point x="345" y="427"/>
      <point x="360" y="416" type="curve"/>
      <point x="360" y="107" type="line" smooth="yes"/>
      <point x="360" y="48"/>
      <point x="385" y="8"/>
    </contour>
    <contour>
      <point x="115" y="-8" type="line"/>
      <point x="216" y="0" type="line"/>
      <point x="216" y="449" type="line"/>
      <point x="212" y="460" type="line"/>
      <point x="212" y="725" type="line"/>
      <point x="188" y="750" type="line"/>
      <point x="20" y="722" type="line"/>
      <point x="20" y="669" type="line"/>
      <point x="91" y="646" type="line"/>
      <point x="91" y="17" type="line"/>
    </contour>
  </outline>
</glyph>
<glyph name="j" format="2">
  <advance width="286"/>
  <unicode hex="006A"/>
  <outline>
    <contour>
      <point x="51" y="-210" type="line"/>
      <point x="135" y="-153"/>
      <point x="217" y="-104"/>
      <point x="217" y="17" type="curve" smooth="yes"/>
      <point x="217" y="522" type="line"/>
      <point x="192" y="547" type="line"/>
      <point x="21" y="519" type="line"/>
      <point x="21" y="466" type="line"/>
      <point x="92" y="443" type="line"/>
      <point x="92" y="-7" type="line"/>
      <point x="77" y="-47"/>
      <point x="28" y="-116"/>
      <point x="-2" y="-155" type="curve"/>
    </contour>
    <contour>
      <point x="201" y="625" type="curve"/>
      <point x="219" y="644"/>
      <point x="229" y="672"/>
      <point x="229" y="702" type="curve" smooth="yes"/>
      <point x="229" y="730"/>
      <point x="221" y="750"/>
      <point x="209" y="767" type="curve"/>
      <point x="180" y="768"/>
      <point x="102" y="757"/>
      <point x="88" y="749" type="curve"/>
      <point x="78" y="715"/>
      <point x="82" y="657"/>
      <point x="97" y="634" type="curve"/>
      <point x="131" y="625"/>
      <point x="172" y="624"/>
    </contour>
  </outline>
</glyph>
<glyph name="k" format="2">
  <advance width="541"/>
  <unicode hex="006B"/>
  <outline>
    <contour>
      <point x="393" y="284" type="line"/>
      <point x="336" y="306" type="line"/>
      <point x="287" y="305" type="line"/>
      <point x="262" y="273" type="line"/>
      <point x="340" y="83" type="line" smooth="yes"/>
      <point x="364" y="21"/>
      <point x="381" y="7"/>
      <point x="431" y="-10" type="curve"/>
      <point x="544" y="20" type="line"/>
      <point x="544" y="76" type="line"/>
      <point x="476" y="93" type="line"/>
    </contour>
    <contour>
      <point x="115" y="-10" type="line"/>
      <point x="216" y="0" type="line"/>
      <point x="216" y="725" type="line"/>
      <point x="191" y="750" type="line"/>
      <point x="20" y="724" type="line"/>
      <point x="20" y="671" type="line"/>
      <point x="91" y="648" type="line"/>
      <point x="91" y="15" type="line"/>
    </contour>
    <contour>
      <point x="194" y="156" type="line"/>
      <point x="521" y="481" type="line"/>
      <point x="512" y="540" type="line"/>
      <point x="322" y="539" type="line"/>
      <point x="318" y="487" type="line"/>
      <point x="384" y="465" type="line"/>
      <point x="194" y="236" type="line"/>
    </contour>
  </outline>
</glyph>
<glyph name="l" format="2">
  <advance width="300"/>
  <unicode hex="006C"/>
  <outline>
    <contour>
      <point x="163" y="-10" type="curve"/>
      <point x="283" y="20" type="line"/>
      <point x="283" y="76" type="line"/>
      <point x="212" y="93" type="line"/>
      <point x="212" y="722" type="line"/>
      <point x="188" y="747" type="line"/>
      <point x="17" y="718" type="line"/>
      <point x="17" y="665" type="line"/>
      <point x="87" y="642" type="line"/>
      <point x="87" y="107" type="line" smooth="yes"/>
      <point x="87" y="48"/>
      <point x="112" y="8"/>
    </contour>
  </outline>
</glyph>
<glyph name="m" format="2">
  <advance width="815"/>
  <unicode hex="006D"/>
  <outline>
    <contour>
      <point x="683" y="-10" type="curve"/>
      <point x="800" y="20" type="line"/>
      <point x="800" y="76" type="line"/>
      <point x="729" y="93" type="line"/>
      <point x="729" y="434" type="line" smooth="yes"/>
      <point x="729" y="506"/>
      <point x="676" y="552"/>
      <point x="598" y="552" type="curve" smooth="yes"/>
      <point x="567" y="552"/>
      <point x="544" y="548"/>
      <point x="526" y="541" type="curve"/>
      <point x="465" y="471" type="line"/>
      <point x="454" y="403" type="line"/>
      <point x="473" y="423"/>
      <point x="514" y="438"/>
      <point x="549" y="438" type="curve" smooth="yes"/>
      <point x="572" y="438"/>
      <point x="593" y="432"/>
      <point x="607" y="421" type="curve"/>
      <point x="607" y="109" type="line" smooth="yes"/>
      <point x="607" y="52"/>
      <point x="630" y="10"/>
    </contour>
    <contour>
      <point x="115" y="-8" type="line"/>
      <point x="216" y="0" type="line"/>
      <point x="216" y="457" type="line" smooth="yes"/>
      <point x="209" y="491"/>
      <point x="190" y="528"/>
      <point x="169" y="550" type="curve"/>
      <point x="20" y="510" type="line"/>
      <point x="20" y="457" type="line"/>
      <point x="91" y="434" type="line"/>
      <point x="91" y="17" type="line"/>
    </contour>
    <contour>
      <point x="378" y="-8" type="line"/>
      <point x="475" y="0" type="line"/>
      <point x="475" y="434" type="line"/>
      <point x="475" y="506"/>
      <point x="420" y="552"/>
      <point x="342" y="552" type="curve" smooth="yes"/>
      <point x="311" y="552"/>
      <point x="290" y="547"/>
      <point x="268" y="541" type="curve"/>
      <point x="206" y="471" type="line"/>
      <point x="195" y="403" type="line"/>
      <point x="212" y="422"/>
      <point x="254" y="437"/>
      <point x="290" y="437" type="curve" smooth="yes"/>
      <point x="314" y="437"/>
      <point x="338" y="432"/>
      <point x="353" y="422" type="curve"/>
      <point x="353" y="17" type="line"/>
    </contour>
  </outline>
</glyph>
<glyph name="n" format="2">
  <advance width="567"/>
  <unicode hex="006E"/>
  <anchor x="283" y="540" name="top"/>
  <anchor x="283" y="0" name="bottom"/>
  <outline>
    <contour>
      <point x="436" y="-10" type="curve"/>
      <point x="552" y="20" type="line"/>
      <point x="552" y="76" type="line"/>
      <point x="482" y="93" type="line"/>
      <point x="482" y="435" type="line" smooth="yes"/>
      <point x="482" y="506"/>
      <point x="427" y="552"/>
      <point x="347" y="552" type="curve" smooth="yes"/>
      <point x="314" y="552"/>
      <point x="291" y="548"/>
      <point x="270" y="541" type="curve"/>
      <point x="209" y="471" type="line"/>
      <point x="198" y="403" type="line"/>
      <point x="218" y="424"/>
      <point x="261" y="438"/>
      <point x="297" y="438" type="curve" smooth="yes"/>
      <point x="323" y="438"/>
      <point x="345" y="432"/>
      <point x="360" y="421" type="curve"/>
      <point x="360" y="107" type="line" smooth="yes"/>
      <point x="360" y="48"/>
      <point x="385" y="8"/>
    </contour>
    <contour>
      <point x="115" y="-8" type="line"/>
      <point x="216" y="0" type="line"/>
      <point x="216" y="457" type="line"/>
      <point x="208" y="496"/>
      <point x="188" y="530"/>
      <point x="169" y="550" type="curve"/>
      <point x="20" y="510" type="line"/>
      <point x="20" y="457" type="line"/>
      <point x="91" y="434" type="line"/>
      <point x="91" y="17" type="line"/>
    </contour>
  </outline>
</glyph>
<glyph name="o" format="2">
  <advance width="525"/>
  <unicode hex="006F"/>
  <anchor x="263" y="0" name="bottom"/>
  <anchor x="472" y="10" name="ogonek"/>
  <anchor x="263" y="540" name="top"/>
  <anchor x="505" y="540" name="topright"/>
  <anchor x="263" y="270" name="center"/>
  <outline>
    <contour>
      <point x="260" y="-10" type="curve" smooth="yes"/>
      <point x="310" y="-10"/>
      <point x="353" y="-4"/>
      <point x="378" y="4" type="curve"/>
      <point x="458" y="97" type="line"/>
      <point x="457" y="385" type="line" smooth="yes"/>
      <point x="457" y="496"/>
      <point x="393" y="550"/>
      <point x="278" y="550" type="curve" smooth="yes"/>
      <point x="222" y="550"/>
      <point x="174" y="543"/>
      <point x="147" y="537" type="curve"/>
      <point x="67" y="444" type="line"/>
      <point x="67" y="165" type="line" smooth="yes"/>
      <point x="67" y="45"/>
      <point x="143" y="-10"/>
    </contour>
    <contour>
      <point x="337" y="81" type="line"/>
      <point x="351" y="103" type="line"/>
      <point x="330" y="93"/>
      <point x="306" y="89"/>
      <point x="271" y="89" type="curve" smooth="yes"/>
      <point x="213" y="89"/>
      <point x="187" y="115"/>
      <point x="187" y="176" type="curve" smooth="yes"/>
      <point x="187" y="459" type="line"/>
      <point x="173" y="435" type="line"/>
      <point x="191" y="445"/>
      <point x="220" y="451"/>
      <point x="254" y="451" type="curve" smooth="yes"/>
      <point x="312" y="451"/>
      <point x="337" y="427"/>
      <point x="337" y="366" type="curve" smooth="yes"/>
    </contour>
  </outline>
</glyph>
<glyph name="p" format="2">
  <advance width="548"/>
  <unicode hex="0070"/>
  <outline>
    <contour>
      <point x="310" y="-9" type="curve" smooth="yes"/>
      <point x="351" y="-9"/>
      <point x="375" y="-2"/>
      <point x="398" y="6" type="curve"/>
      <point x="478" y="98" type="line"/>
      <point x="480" y="187"/>
      <point x="481" y="276"/>
      <point x="481" y="363" type="curve" smooth="yes"/>
      <point x="481" y="509"/>
      <point x="416" y="551"/>
      <point x="323" y="551" type="curve" smooth="yes"/>
      <point x="291" y="551"/>
      <point x="267" y="545"/>
      <point x="257" y="541" type="curve"/>
      <point x="195" y="448" type="line"/>
      <point x="194" y="420" type="line"/>
      <point x="214" y="434"/>
      <point x="247" y="447"/>
      <point x="279" y="447" type="curve" smooth="yes"/>
      <point x="335" y="447"/>
      <point x="359" y="424"/>
      <point x="359" y="330" type="curve" smooth="yes"/>
      <point x="359" y="251"/>
      <point x="358" y="166"/>
      <point x="356" y="89" type="curve"/>
      <point x="375" y="113" type="line"/>
      <point x="353" y="99"/>
      <point x="320" y="94"/>
      <point x="285" y="94" type="curve" smooth="yes"/>
      <point x="247" y="94"/>
      <point x="221" y="104"/>
      <point x="196" y="122" type="curve"/>
      <point x="152" y="75" type="line"/>
      <point x="192" y="23"/>
      <point x="246" y="-9"/>
    </contour>
    <contour>
      <point x="112" y="-208" type="line"/>
      <point x="209" y="-200" type="line"/>
      <point x="209" y="75" type="line"/>
      <point x="212" y="89" type="line"/>
      <point x="212" y="457" type="line" smooth="yes"/>
      <point x="206" y="491"/>
      <point x="187" y="529"/>
      <point x="162" y="550" type="curve"/>
      <point x="17" y="510" type="line"/>
      <point x="17" y="457" type="line"/>
      <point x="87" y="434" type="line"/>
      <point x="87" y="-184" type="line"/>
    </contour>
  </outline>
</glyph>
<glyph name="q" format="2">
  <advance width="528"/>
  <unicode hex="0071"/>
  <outline>
    <contour>
      <point x="226" y="-10" type="curve" smooth="yes"/>
      <point x="256" y="-10"/>
      <point x="282" y="-5"/>
      <point x="293" y="1" type="curve"/>
      <point x="357" y="98" type="line"/>
      <point x="352" y="124" type="line"/>
      <point x="332" y="108"/>
      <point x="302" y="92"/>
      <point x="266" y="92" type="curve" smooth="yes"/>
      <point x="215" y="92"/>
      <point x="189" y="121"/>
      <point x="189" y="178" type="curve" smooth="yes"/>
      <point x="189" y="453" type="line"/>
      <point x="173" y="429" type="line"/>
      <point x="195" y="443"/>
      <point x="224" y="448"/>
      <point x="259" y="448" type="curve" smooth="yes"/>
      <point x="298" y="448"/>
      <point x="327" y="438"/>
      <point x="352" y="420" type="curve"/>
      <point x="396" y="467" type="line"/>
      <point x="357" y="518"/>
      <point x="299" y="547"/>
      <point x="233" y="547" type="curve" smooth="yes"/>
      <point x="196" y="547"/>
      <point x="165" y="540"/>
      <point x="147" y="533" type="curve"/>
      <point x="67" y="440" type="line"/>
      <point x="67" y="149" type="line" smooth="yes"/>
      <point x="67" y="39"/>
      <point x="137" y="-10"/>
    </contour>
    <contour>
      <point x="364" y="-203" type="line"/>
      <point x="461" y="-195" type="line"/>
      <point x="461" y="540" type="line"/>
      <point x="408" y="540" type="line"/>
      <point x="336" y="436" type="line"/>
      <point x="336" y="85" type="line"/>
      <point x="339" y="73" type="line"/>
      <point x="339" y="-178" type="line"/>
    </contour>
  </outline>
</glyph>
<glyph name="r" format="2">
  <advance width="387"/>
  <unicode hex="0072"/>
  <outline>
    <contour>
      <point x="115" y="-8" type="line"/>
      <point x="216" y="0" type="line"/>
      <point x="216" y="457" type="line" smooth="yes"/>
      <point x="209" y="491"/>
      <point x="191" y="527"/>
      <point x="169" y="550" type="curve"/>
      <point x="20" y="510" type="line"/>
      <point x="20" y="457" type="line"/>
      <point x="91" y="434" type="line"/>
      <point x="91" y="17" type="line"/>
    </contour>
    <contour>
      <point x="209" y="409" type="line"/>
      <point x="234" y="419"/>
      <point x="271" y="427"/>
      <point x="306" y="427" type="curve" smooth="yes"/>
      <point x="325" y="427"/>
      <point x="345" y="425"/>
      <point x="360" y="423" type="curve"/>
      <point x="372" y="542" type="line"/>
      <point x="358" y="547"/>
      <point x="339" y="550"/>
      <point x="320" y="550" type="curve" smooth="yes"/>
      <point x="298" y="550"/>
      <point x="280" y="546"/>
      <point x="258" y="539" type="curve"/>
      <point x="209" y="468" type="line"/>
    </contour>
  </outline>
</glyph>
<glyph name="s" format="2">
  <advance width="432"/>
  <unicode hex="0073"/>
  <outline>
    <contour>
      <point x="195" y="-11" type="curve" smooth="yes"/>
      <point x="248" y="-11"/>
      <point x="294" y="-1"/>
      <point x="331" y="17" type="curve"/>
      <point x="398" y="99" type="line"/>
      <point x="399" y="161" type="line" smooth="yes"/>
      <point x="400" y="244"/>
      <point x="355" y="277"/>
      <point x="274" y="308" type="curve" smooth="yes"/>
      <point x="213" y="331"/>
      <point x="159" y="345"/>
      <point x="159" y="396" type="curve" smooth="yes"/>
      <point x="159" y="439" type="line"/>
      <point x="142" y="407" type="line"/>
      <point x="159" y="424"/>
      <point x="189" y="438"/>
      <point x="243" y="438" type="curve" smooth="yes"/>
      <point x="290" y="438"/>
      <point x="328" y="431"/>
      <point x="365" y="416" type="curve"/>
      <point x="390" y="522" type="line"/>
      <point x="362" y="537"/>
      <point x="307" y="549"/>
      <point x="250" y="549" type="curve" smooth="yes"/>
      <point x="176" y="549"/>
      <point x="134" y="534"/>
      <point x="98" y="512" type="curve"/>
      <point x="42" y="435" type="line"/>
      <point x="42" y="383" type="line" smooth="yes"/>
      <point x="42" y="297"/>
      <point x="85" y="264"/>
      <point x="149" y="237" type="curve" smooth="yes"/>
      <point x="215" y="210"/>
      <point x="283" y="199"/>
      <point x="283" y="138" type="curve" smooth="yes"/>
      <point x="283" y="121"/>
      <point x="282" y="105"/>
      <point x="280" y="88" type="curve"/>
      <point x="299" y="120" type="line"/>
      <point x="275" y="103"/>
      <point x="240" y="99"/>
      <point x="194" y="99" type="curve" smooth="yes"/>
      <point x="151" y="99"/>
      <point x="102" y="111"/>
      <point x="61" y="128" type="curve"/>
      <point x="39" y="20" type="line"/>
      <point x="76" y="4"/>
      <point x="129" y="-11"/>
    </contour>
  </outline>
</glyph>
<glyph name="t" format="2">
  <advance width="398"/>
  <unicode hex="0074"/>
  <outline>
    <contour>
      <point x="259" y="-10" type="curve" smooth="yes"/>
      <point x="275" y="-10"/>
      <point x="289" y="-9"/>
      <point x="300" y="-6" type="curve"/>
      <point x="387" y="29" type="line"/>
      <point x="387" y="101" type="line"/>
      <point x="361" y="97"/>
      <point x="336" y="95"/>
      <point x="302" y="95" type="curve" smooth="yes"/>
      <point x="251" y="95"/>
      <point x="228" y="129"/>
      <point x="228" y="202" type="curve" smooth="yes"/>
      <point x="228" y="630" type="line"/>
      <point x="204" y="655" type="line"/>
      <point x="103" y="627" type="line"/>
      <point x="103" y="169" type="line" smooth="yes"/>
      <point x="103" y="53"/>
      <point x="164" y="-10"/>
    </contour>
    <contour>
      <point x="346" y="445" type="line"/>
      <point x="374" y="467" type="line"/>
      <point x="374" y="534" type="line"/>
      <point x="32" y="526" type="line"/>
      <point x="15" y="509" type="line"/>
      <point x="19" y="450" type="line"/>
    </contour>
  </outline>
</glyph>
<glyph name="u" format="2">
  <advance width="564"/>
  <unicode hex="0075"/>
  <anchor x="507" y="10" name="ogonek"/>
  <anchor x="282" y="540" name="top"/>
  <anchor x="544" y="540" name="topright"/>
  <anchor x="282" y="0" name="bottom"/>
  <outline>
    <contour>
      <point x="229" y="-10" type="curve" smooth="yes"/>
      <point x="265" y="-10"/>
      <point x="295" y="-2"/>
      <point x="317" y="7" type="curve"/>
      <point x="378" y="100" type="line"/>
      <point x="365" y="136" type="line"/>
      <point x="342" y="116"/>
      <point x="314" y="103"/>
      <point x="279" y="103" type="curve" smooth="yes"/>
      <point x="251" y="103"/>
      <point x="230" y="110"/>
      <point x="212" y="126" type="curve"/>
      <point x="212" y="450" type="line" smooth="yes"/>
      <point x="206" y="485"/>
      <point x="189" y="520"/>
      <point x="166" y="544" type="curve"/>
      <point x="17" y="504" type="line"/>
      <point x="17" y="451" type="line"/>
      <point x="87" y="428" type="line"/>
      <point x="87" y="145" type="line" smooth="yes"/>
      <point x="87" y="40"/>
      <point x="147" y="-10"/>
    </contour>
    <contour>
      <point x="438" y="-10" type="curve"/>
      <point x="549" y="20" type="line"/>
      <point x="549" y="76" type="line"/>
      <point x="482" y="93" type="line"/>
      <point x="482" y="522" type="line"/>
      <point x="457" y="547" type="line"/>
      <point x="293" y="521" type="line"/>
      <point x="293" y="468" type="line"/>
      <point x="357" y="445" type="line"/>
      <point x="357" y="100" type="line" smooth="yes"/>
      <point x="357" y="45"/>
      <point x="384" y="6"/>
    </contour>
  </outline>
</glyph>
<glyph name="v" format="2">
  <advance width="503"/>
  <unicode hex="0076"/>
  <outline>
    <contour>
      <point x="258" y="-10" type="curve" smooth="yes"/>
      <point x="278" y="-10"/>
      <point x="303" y="-4"/>
      <point x="318" y="-1" type="curve"/>
      <point x="307" y="80" type="line"/>
      <point x="296" y="90"/>
      <point x="290" y="85"/>
      <point x="282" y="91" type="curve" smooth="yes"/>
      <point x="156" y="545" type="line"/>
      <point x="-12" y="525" type="line"/>
      <point x="-12" y="472" type="line"/>
      <point x="47" y="447" type="line"/>
      <point x="149" y="117" type="line" smooth="yes"/>
      <point x="183" y="10"/>
      <point x="194" y="-10"/>
    </contour>
    <contour>
      <point x="318" y="-1" type="line"/>
      <point x="486" y="481" type="line"/>
      <point x="478" y="540" type="line"/>
      <point x="301" y="540" type="line"/>
      <point x="297" y="488" type="line"/>
      <point x="368" y="461" type="line"/>
      <point x="278" y="79" type="line"/>
    </contour>
  </outline>
</glyph>
<glyph name="w" format="2">
  <advance width="772"/>
  <unicode hex="0077"/>
  <outline>
    <contour>
      <point x="244" y="-10" type="curve" smooth="yes"/>
      <point x="265" y="-10"/>
      <point x="297" y="-4"/>
      <point x="312" y="-1" type="curve"/>
      <point x="294" y="80" type="line"/>
      <point x="285" y="86"/>
      <point x="276" y="86"/>
      <point x="268" y="91" type="curve"/>
      <point x="156" y="545" type="line"/>
      <point x="-12" y="525" type="line"/>
      <point x="-12" y="472" type="line"/>
      <point x="47" y="447" type="line"/>
      <point x="135" y="117" type="line" smooth="yes"/>
      <point x="162" y="19"/>
      <point x="175" y="-10"/>
    </contour>
    <contour>
      <point x="312" y="-1" type="line"/>
      <point x="415" y="480" type="line"/>
      <point x="443" y="542" type="line"/>
      <point x="341" y="540" type="line"/>
      <point x="260" y="79" type="line"/>
    </contour>
    <contour>
      <point x="539" y="-10" type="curve" smooth="yes"/>
      <point x="559" y="-10"/>
      <point x="584" y="-4"/>
      <point x="599" y="-1" type="curve"/>
      <point x="588" y="80" type="line"/>
      <point x="580" y="81"/>
      <point x="571" y="85"/>
      <point x="563" y="91" type="curve"/>
      <point x="449" y="545" type="line"/>
      <point x="341" y="540" type="line"/>
      <point x="369" y="394" type="line"/>
      <point x="436" y="117" type="line" smooth="yes"/>
      <point x="460" y="19"/>
      <point x="475" y="-10"/>
    </contour>
    <contour>
      <point x="599" y="-1" type="line"/>
      <point x="755" y="481" type="line"/>
      <point x="747" y="540" type="line"/>
      <point x="579" y="540" type="line"/>
      <point x="572" y="488" type="line"/>
      <point x="637" y="461" type="line"/>
      <point x="558" y="79" type="line"/>
    </contour>
  </outline>
</glyph>
<glyph name="x" format="2">
  <advance width="497"/>
  <unicode hex="0078"/>
  <outline>
    <contour>
      <point x="252" y="269" type="line"/>
      <point x="298" y="238" type="line"/>
      <point x="471" y="481" type="line"/>
      <point x="463" y="540" type="line"/>
      <point x="300" y="540" type="line"/>
      <point x="292" y="488" type="line"/>
      <point x="350" y="461" type="line"/>
    </contour>
    <contour>
      <point x="5" y="472" type="line"/>
      <point x="70" y="447" type="line"/>
      <point x="193" y="247" type="line"/>
      <point x="213" y="231" type="line"/>
      <point x="293" y="86" type="line" smooth="yes"/>
      <point x="324" y="31"/>
      <point x="341" y="8"/>
      <point x="389" y="-9" type="curve"/>
      <point x="492" y="21" type="line"/>
      <point x="492" y="77" type="line"/>
      <point x="428" y="98" type="line"/>
      <point x="304" y="298" type="line"/>
      <point x="284" y="312" type="line"/>
      <point x="158" y="545" type="line"/>
      <point x="5" y="525" type="line"/>
    </contour>
    <contour>
      <point x="246" y="258" type="line"/>
      <point x="203" y="297" type="line"/>
      <point x="28" y="59" type="line"/>
      <point x="37" y="0" type="line"/>
      <point x="200" y="0" type="line"/>
      <point x="208" y="51" type="line"/>
      <point x="156" y="76" type="line"/>
    </contour>
  </outline>
</glyph>
<glyph name="y" format="2">
  <advance width="483"/>
  <unicode hex="0079"/>
  <outline>
    <contour>
      <point x="77" y="-210" type="line"/>
      <point x="120" y="-207"/>
      <point x="190" y="-196"/>
      <point x="224" y="-173" type="curve" smooth="yes"/>
      <point x="260" y="-146"/>
      <point x="282" y="-105"/>
      <point x="316" y="-5" type="curve" smooth="yes"/>
      <point x="476" y="481" type="line"/>
      <point x="467" y="540" type="line"/>
      <point x="291" y="540" type="line"/>
      <point x="286" y="488" type="line"/>
      <point x="358" y="461" type="line"/>
      <point x="265" y="71" type="line"/>
      <point x="279" y="71" type="line"/>
      <point x="146" y="545" type="line"/>
      <point x="-22" y="525" type="line"/>
      <point x="-22" y="472" type="line"/>
      <point x="37" y="447" type="line"/>
      <point x="176" y="13" type="line"/>
      <point x="244" y="-11" type="line"/>
      <point x="255" y="46" type="line"/>
      <point x="231" y="0"/>
      <point x="192" y="-63"/>
      <point x="162" y="-100" type="curve"/>
      <point x="130" y="-117"/>
      <point x="90" y="-134"/>
      <point x="58" y="-147" type="curve"/>
    </contour>
  </outline>
</glyph>
<glyph name="z" format="2">
  <advance width="437"/>
  <unicode hex="007A"/>
  <outline>
    <contour>
      <point x="404" y="439" type="line"/>
      <point x="390" y="540" type="line"/>
      <point x="45" y="545" type="line"/>
      <point x="20" y="520" type="line"/>
      <point x="35" y="359" type="line"/>
      <point x="104" y="359" type="line"/>
      <point x="113" y="434" type="line"/>
      <point x="335" y="435" type="line"/>
      <point x="327" y="479" type="line"/>
      <point x="32" y="76" type="line"/>
      <point x="45" y="0" type="line"/>
      <point x="384" y="0" type="line"/>
      <point x="409" y="25" type="line"/>
      <point x="404" y="110" type="line"/>
      <point x="109" y="104" type="line"/>
      <point x="122" y="64" type="line"/>
    </contour>
  </outline>
</glyph>
<glyph name="dotlessi" format="2">
  <advance width="300"/>
  <unicode hex="0131"/>
  <anchor x="270" y="10" name="ogonek"/>
  <anchor x="150" y="0" name="bottom"/>
  <anchor x="149" y="540" name="top"/>
  <outline>
    <contour>
      <point x="163" y="-10" type="curve"/>
      <point x="283" y="20" type="line"/>
      <point x="283" y="76" type="line"/>
      <point x="212" y="93" type="line"/>
      <point x="212" y="522" type="line"/>
      <point x="188" y="547" type="line"/>
      <point x="17" y="518" type="line"/>
      <point x="17" y="465" type="line"/>
      <point x="87" y="442" type="line"/>
      <point x="87" y="107" type="line" smooth="yes"/>
      <point x="87" y="48"/>
      <point x="112" y="8"/>
    </contour>
  </outline>
</glyph>
<glyph name="acutecomb" format="2">
  <advance width="369"/>
  <unicode hex="0301"/>
  <anchor x="185" y="785" name="top"/>
  <anchor x="185" y="526" name="_top"/>
  <outline>
    <contour>
      <point x="328" y="691" type="curve"/>
      <point x="328" y="730"/>
      <point x="303" y="784"/>
      <point x="267" y="797" type="curve"/>
      <point x="214" y="762"/>
      <point x="98" y="677"/>
      <point x="45" y="635" type="curve"/>
      <point x="68" y="593" type="line"/>
      <point x="126" y="615"/>
      <point x="265" y="665"/>
    </contour>
  </outline>
</glyph>
<glyph name="tildecomb" format="2">
  <advance width="471"/>
  <unicode hex="0303"/>
  <anchor x="238" y="749" name="top"/>
  <anchor x="238" y="540" name="_top"/>
  <outline>
    <contour>
      <point x="325" y="705" type="curve"/>
      <point x="383" y="752" type="line"/>
      <point x="386" y="750"/>
      <point x="410" y="731"/>
      <point x="421" y="719" type="curve"/>
      <point x="396" y="661"/>
      <point x="360" y="618"/>
      <point x="303" y="618" type="curve" smooth="yes"/>
      <point x="244" y="618"/>
      <point x="192" y="646"/>
      <point x="145" y="670" type="curve"/>
      <point x="88" y="620" type="line"/>
      <point x="85" y="622"/>
      <point x="62" y="635"/>
      <point x="50" y="647" type="curve"/>
      <point x="70" y="709"/>
      <point x="118" y="764"/>
      <point x="171" y="764" type="curve" smooth="yes"/>
      <point x="221" y="764"/>
      <point x="271" y="737"/>
    </contour>
  </outline>
</glyph>
<glyph name="uni0307" format="2">
  <advance width="300"/>
  <unicode hex="0307"/>
  <anchor x="150" y="540" name="_top"/>
  <outline>
    <contour>
      <point x="196" y="625" type="curve"/>
      <point x="214" y="644"/>
      <point x="224" y="672"/>
      <point x="224" y="702" type="curve" smooth="yes"/>
      <point x="224" y="730"/>
      <point x="216" y="750"/>
      <point x="204" y="767" type="curve"/>
      <point x="175" y="768"/>
      <point x="98" y="757"/>
      <point x="83" y="749" type="curve"/>
      <point x="74" y="715"/>
      <point x="77" y="657"/>
      <point x="93" y="634" type="curve"/>
      <point x="126" y="625"/>
      <point x="167" y="624"/>
    </contour>
  </outline>
</glyph>
<glyph name="uni0308" format="2">
  <advance width="451"/>
  <unicode hex="0308"/>
  <anchor x="226" y="843" name="top"/>
  <anchor x="226" y="526" name="_top"/>
  <outline>
    <contour>
      <point x="107" y="624" type="curve" smooth="yes"/>
      <point x="128" y="624"/>
      <point x="148" y="631"/>
      <point x="163" y="639" type="curve"/>
      <point x="177" y="653"/>
      <point x="183" y="671"/>
      <point x="183" y="690" type="curve" smooth="yes"/>
      <point x="183" y="724"/>
      <point x="160" y="755"/>
      <point x="120" y="755" type="curve" smooth="yes"/>
      <point x="100" y="755"/>
      <point x="79" y="748"/>
      <point x="64" y="739" type="curve"/>
      <point x="50" y="725"/>
      <point x="44" y="707"/>
      <point x="44" y="689" type="curve" smooth="yes"/>
      <point x="44" y="655"/>
      <point x="68" y="624"/>
    </contour>
    <contour>
      <point x="330" y="624" type="curve" smooth="yes"/>
      <point x="351" y="624"/>
      <point x="371" y="631"/>
      <point x="385" y="639" type="curve"/>
      <point x="400" y="653"/>
      <point x="406" y="671"/>
      <point x="406" y="690" type="curve" smooth="yes"/>
      <point x="406" y="724"/>
      <point x="382" y="755"/>
      <point x="343" y="755" type="curve" smooth="yes"/>
      <point x="321" y="755"/>
      <point x="301" y="747"/>
      <point x="286" y="738" type="curve"/>
      <point x="273" y="724"/>
      <point x="267" y="706"/>
      <point x="267" y="689" type="curve" smooth="yes"/>
      <point x="267" y="655"/>
      <point x="290" y="624"/>
    </contour>
  </outline>
</glyph>
<glyph name="quoteleft" format="2">
  <advance width="235"/>
  <unicode hex="2018"/>
  <outline>
    <contour>
      <point x="125" y="440" type="curve" smooth="yes"/>
      <point x="154" y="440"/>
      <point x="175" y="451"/>
      <point x="192" y="468" type="curve"/>
      <point x="181" y="504"/>
      <point x="165" y="542"/>
      <point x="150" y="574" type="curve"/>
      <point x="180" y="732" type="line"/>
      <point x="136" y="750" type="line"/>
      <point x="89" y="685"/>
      <point x="43" y="599"/>
      <point x="43" y="533" type="curve" smooth="yes"/>
      <point x="43" y="480"/>
      <point x="76" y="440"/>
    </contour>
  </outline>
</glyph>
<glyph name="_part.TailFigures" format="2">
	<advance width="420"/>
	<outline>
		<contour>
			<point x="308" y="53" type="line"/>
			<point x="308" y="-23" type="line"/>
			<point x="325" y="13" type="line"/>
			<point x="299" y="-15"/>
			<point x="253" y="-29"/>
			<point x="200" y="-29" type="curve" smooth="yes"/>
			<point x="146" y="-29"/>
			<point x="93" y="-11"/>
			<point x="55" y="14" type="curve"/>
			<point x="17" y="-73" type="line"/>
			<point x="62" y="-106"/>
			<point x="125" y="-130"/>
			<point x="205" y="-130" type="curve" smooth="yes"/>
			<point x="289" y="-130"/>
			<point x="356" y="-94"/>
			<point x="392" y="-48" type="curve"/>
			<point x="420" y="26" type="line"/>
			<point x="420" y="53" type="line"/>
		</contour>
	</outline>
</glyph>
<glyph name="_part.bottomFigures" format="2">
	<advance width="423"/>
	<outline>
		<contour>
			<point x="19" y="0" type="line"/>
			<point x="399" y="0" type="line"/>
			<point x="423" y="25" type="line"/>
			<point x="422" y="100" type="line"/>
			<point x="83" y="85" type="line"/>
			<point x="42" y="93" type="line"/>
			<point x="0" y="68" type="line"/>
		</contour>
	</outline>
</glyph>
<glyph name="_part.sixBowl" format="2">
	<advance width="484"/>
	<outline>
		<contour>
			<point x="159" y="451" type="line"/>
			<point x="47" y="440" type="line"/>
			<point x="47" y="165" type="line" smooth="yes"/>
			<point x="47" y="45"/>
			<point x="129" y="-10"/>
			<point x="250" y="-10" type="curve" smooth="yes"/>
			<point x="291" y="-10"/>
			<point x="330" y="-4"/>
			<point x="351" y="4" type="curve"/>
			<point x="437" y="109" type="line"/>
			<point x="437" y="261" type="line" smooth="yes"/>
			<point x="437" y="365"/>
			<point x="381" y="419"/>
			<point x="288" y="419" type="curve" smooth="yes"/>
			<point x="263" y="419"/>
			<point x="232" y="417"/>
			<point x="216" y="413" type="curve"/>
			<point x="149" y="344" type="line"/>
			<point x="149" y="305" type="line"/>
			<point x="173" y="315"/>
			<point x="218" y="320"/>
			<point x="250" y="320" type="curve" smooth="yes"/>
			<point x="291" y="320"/>
			<point x="325" y="300"/>
			<point x="325" y="237" type="curve" smooth="yes"/>
			<point x="325" y="80" type="line"/>
			<point x="339" y="104" type="line"/>
			<point x="324" y="94"/>
			<point x="301" y="90"/>
			<point x="252" y="90" type="curve" smooth="yes"/>
			<point x="188" y="90"/>
			<point x="159" y="116"/>
			<point x="159" y="185" type="curve" smooth="yes"/>
		</contour>
	</outline>
</glyph>
<glyph name="_part.tailFiguresOld" format="2">
	<advance width="403"/>
	<anchor x="403" y="126" name="connect"/>
	<anchor x="0" y="126" name="_connect"/>
	<outline>
		<contour>
			<point x="403" y="126" type="curve"/>
			<point x="291" y="115" type="line"/>
			<point x="291" y="34"/>
			<point x="193" y="-43"/>
			<point x="6" y="-58" type="curve"/>
			<point x="8" y="-120" type="line"/>
			<point x="38" y="-130" type="line"/>
			<point x="202" y="-130"/>
			<point x="403" y="-54"/>
		</contour>
	</outline>
</glyph>
<glyph name="_part.threeTop" format="2">
	<advance width="410"/>
	<outline>
		<contour>
			<point x="410" y="173" type="line"/>
			<point x="410" y="200" type="line" smooth="yes"/>
			<point x="410" y="317"/>
			<point x="354" y="382"/>
			<point x="238" y="382" type="curve" smooth="yes"/>
			<point x="225" y="382"/>
			<point x="196" y="382"/>
			<point x="184" y="381" type="curve"/>
			<point x="194" y="351" type="line"/>
			<point x="397" y="593" type="line"/>
			<point x="372" y="680" type="line"/>
			<point x="34" y="680" type="line"/>
			<point x="3" y="650" type="line"/>
			<point x="18" y="489" type="line"/>
			<point x="90" y="489" type="line"/>
			<point x="112" y="641" type="line"/>
			<point x="51" y="583" type="line"/>
			<point x="330" y="583" type="line"/>
			<point x="305" y="615" type="line"/>
			<point x="104" y="336" type="line"/>
			<point x="132" y="294" type="line"/>
			<point x="143" y="296"/>
			<point x="181" y="297"/>
			<point x="198" y="297" type="curve" smooth="yes"/>
			<point x="266" y="297"/>
			<point x="298" y="267"/>
			<point x="298" y="189" type="curve" smooth="yes"/>
			<point x="298" y="173" type="line"/>
		</contour>
	</outline>
</glyph>
<glyph name="_part.topFive" format="2">
	<advance width="484"/>
	<outline>
		<contour>
			<point x="434" y="53" type="line"/>
			<point x="434" y="100" type="line" smooth="yes"/>
			<point x="434" y="213"/>
			<point x="358" y="282"/>
			<point x="243" y="282" type="curve" smooth="yes"/>
			<point x="189" y="282"/>
			<point x="153" y="272"/>
			<point x="116" y="266" type="curve"/>
			<point x="151" y="233" type="line"/>
			<point x="151" y="494" type="line"/>
			<point x="108" y="463" type="line"/>
			<point x="366" y="463" type="line"/>
			<point x="309" y="519" type="line"/>
			<point x="332" y="360" type="line"/>
			<point x="401" y="360" type="line"/>
			<point x="415" y="530" type="line"/>
			<point x="385" y="560" type="line"/>
			<point x="111" y="560" type="line"/>
			<point x="52" y="490" type="line"/>
			<point x="58" y="233" type="line"/>
			<point x="113" y="174" type="line"/>
			<point x="140" y="180"/>
			<point x="174" y="187"/>
			<point x="208" y="186" type="curve" smooth="yes"/>
			<point x="286" y="186"/>
			<point x="322" y="148"/>
			<point x="322" y="89" type="curve" smooth="yes"/>
			<point x="322" y="53" type="line"/>
		</contour>
	</outline>
</glyph>
<glyph name="a.ss01" format="2">
  <advance width="546"/>
  <anchor x="500" y="10" name="ogonek"/>
  <anchor x="287" y="0" name="bottom"/>
  <anchor x="287" y="540" name="top"/>
  <outline>
    <contour>
      <point x="226" y="-10" type="curve" smooth="yes"/>
      <point x="258" y="-10"/>
      <point x="285" y="-5"/>
      <point x="295" y="-1" type="curve"/>
      <point x="360" y="94" type="line"/>
      <point x="360" y="113" type="line"/>
      <point x="341" y="105"/>
      <point x="303" y="94"/>
      <point x="269" y="94" type="curve" smooth="yes"/>
      <point x="216" y="94"/>
      <point x="189" y="115"/>
      <point x="189" y="164" type="curve"/>
      <point x="189" y="453" type="line"/>
      <point x="173" y="430" type="line"/>
      <point x="188" y="439"/>
      <point x="224" y="449"/>
      <point x="261" y="449" type="curve" smooth="yes"/>
      <point x="305" y="449"/>
      <point x="337" y="432"/>
      <point x="352" y="420" type="curve"/>
      <point x="396" y="468" type="line"/>
      <point x="357" y="518"/>
      <point x="301" y="547"/>
      <point x="238" y="547" type="curve" smooth="yes"/>
      <point x="195" y="547"/>
      <point x="165" y="541"/>
      <point x="147" y="534" type="curve"/>
      <point x="67" y="441" type="line"/>
      <point x="67" y="149" type="line" smooth="yes"/>
      <point x="67" y="38"/>
      <point x="133" y="-10"/>
    </contour>
    <contour>
      <point x="461" y="93" type="line"/>
      <point x="461" y="540" type="line"/>
      <point x="408" y="540" type="line"/>
      <point x="336" y="437" type="line"/>
      <point x="336" y="101" type="line"/>
      <point x="336" y="49"/>
      <point x="362" y="6"/>
      <point x="422" y="-10" type="curve"/>
      <point x="531" y="19" type="line"/>
      <point x="531" y="76" type="line"/>
    </contour>
  </outline>
</glyph>
<glyph name="eight.osf" format="2">
  <advance width="484"/>
  <outline>
    <contour>
      <point x="444" y="160" type="line" smooth="yes"/>
      <point x="444" y="288"/>
      <point x="366" y="328"/>
      <point x="293" y="377" type="curve" smooth="yes"/>
      <point x="227" y="422"/>
      <point x="160" y="455"/>
      <point x="160" y="546" type="curve" smooth="yes"/>
      <point x="160" y="597" type="line"/>
      <point x="148" y="576" type="line"/>
      <point x="158" y="581"/>
      <point x="198" y="590"/>
      <point x="241" y="590" type="curve" smooth="yes"/>
      <point x="295" y="590"/>
      <point x="330" y="558"/>
      <point x="330" y="507" type="curve" smooth="yes"/>
      <point x="330" y="447"/>
      <point x="296" y="397"/>
      <point x="265" y="366" type="curve"/>
      <point x="303" y="332" type="line"/>
      <point x="396" y="421" type="line"/>
      <point x="425" y="458"/>
      <point x="433" y="482"/>
      <point x="433" y="525" type="curve" smooth="yes"/>
      <point x="433" y="633"/>
      <point x="356" y="690"/>
      <point x="257" y="690" type="curve" smooth="yes"/>
      <point x="216" y="690"/>
      <point x="171" y="684"/>
      <point x="146" y="676" type="curve"/>
      <point x="56" y="573" type="line"/>
      <point x="56" y="517" type="line" smooth="yes"/>
      <point x="56" y="394"/>
      <point x="133" y="353"/>
      <point x="205" y="304" type="curve" smooth="yes"/>
      <point x="270" y="261"/>
      <point x="340" y="228"/>
      <point x="340" y="133" type="curve" smooth="yes"/>
      <point x="340" y="116"/>
      <point x="339" y="98"/>
      <point x="337" y="81" type="curve"/>
      <point x="353" y="106" type="line"/>
      <point x="340" y="96"/>
      <point x="281" y="91"/>
      <point x="237" y="91" type="curve" smooth="yes"/>
      <point x="175" y="91"/>
      <point x="143" y="120"/>
      <point x="143" y="177" type="curve" smooth="yes"/>
      <point x="143" y="222"/>
      <point x="163" y="279"/>
      <point x="213" y="331" type="curve"/>
      <point x="153" y="357" type="line"/>
      <point x="86" y="284" type="line"/>
      <point x="57" y="248"/>
      <point x="41" y="209"/>
      <point x="41" y="161" type="curve" smooth="yes"/>
      <point x="41" y="45"/>
      <point x="129" y="-10"/>
      <point x="251" y="-10" type="curve" smooth="yes"/>
      <point x="286" y="-10"/>
      <point x="332" y="-4"/>
      <point x="354" y="4" type="curve"/>
      <point x="444" y="109" type="line"/>
    </contour>
  </outline>
</glyph>
<glyph name="five.osf" format="2">
  <advance width="484"/>
  <anchor x="440" y="126" name="connect"/>
  <anchor x="38" y="126" name="_connect"/>
  <outline>
    <contour>
      <point x="440" y="126" type="line"/>
      <point x="440" y="126" type="line" smooth="yes"/>
      <point x="440" y="227"/>
      <point x="377" y="290"/>
      <point x="265" y="290" type="curve" smooth="yes"/>
      <point x="199" y="290"/>
      <point x="145" y="277"/>
      <point x="109" y="268" type="curve"/>
      <point x="147" y="241" type="line"/>
      <point x="152" y="494" type="line"/>
      <point x="112" y="463" type="line"/>
      <point x="372" y="463" type="line"/>
      <point x="309" y="519" type="line"/>
      <point x="345" y="370" type="line"/>
      <point x="414" y="370" type="line"/>
      <point x="422" y="530" type="line"/>
      <point x="392" y="560" type="line"/>
      <point x="116" y="560" type="line"/>
      <point x="56" y="490" type="line"/>
      <point x="56" y="242" type="line"/>
      <point x="111" y="182" type="line"/>
      <point x="138" y="189"/>
      <point x="180" y="195"/>
      <point x="227" y="195" type="curve" smooth="yes"/>
      <point x="299" y="194"/>
      <point x="328" y="163"/>
      <point x="328" y="115" type="curve" smooth="yes"/>
      <point x="328" y="115" type="line"/>
    </contour>
    <component base="_part.tailFiguresOld" xOffset="38"/>
  </outline>
</glyph>
<glyph name="four.osf" format="2">
  <advance width="484"/>
  <outline>
    <contour>
      <point x="282" y="560" type="line"/>
      <point x="13" y="73" type="line"/>
      <point x="31" y="0" type="line"/>
      <point x="446" y="0" type="line"/>
      <point x="471" y="25" type="line"/>
      <point x="470" y="96" type="line"/>
      <point x="60" y="79" type="line"/>
      <point x="99" y="62" type="line"/>
      <point x="349" y="519" type="line"/>
      <point x="292" y="519" type="line"/>
      <point x="292" y="-107" type="line"/>
      <point x="318" y="-130" type="line"/>
      <point x="404" y="-120" type="line"/>
      <point x="404" y="560" type="line"/>
    </contour>
  </outline>
</glyph>
<glyph name="one.lf" format="2">
  <advance width="484"/>
  <outline>
    <contour>
      <point x="34" y="0" type="line"/>
      <point x="451" y="0" type="line"/>
      <point x="451" y="64" type="line"/>
      <point x="301" y="84" type="line"/>
      <point x="301" y="665" type="line"/>
      <point x="277" y="690" type="line"/>
      <point x="53" y="655" type="line"/>
      <point x="53" y="598" type="line"/>
      <point x="186" y="583" type="line"/>
      <point x="186" y="84" type="line"/>
      <point x="34" y="64" type="line"/>
    </contour>
  </outline>
</glyph>
<glyph name="one.osf" format="2">
  <advance width="484"/>
  <outline>
    <contour>
      <point x="34" y="0" type="line"/>
      <point x="451" y="0" type="line"/>
      <point x="451" y="66" type="line"/>
      <point x="301" y="84" type="line"/>
      <point x="301" y="545" type="line"/>
      <point x="277" y="570" type="line"/>
      <point x="53" y="536" type="line"/>
      <point x="53" y="478" type="line"/>
      <point x="186" y="463" type="line"/>
      <point x="186" y="84" type="line"/>
      <point x="34" y="66" type="line"/>
    </contour>
  </outline>
</glyph>
<glyph name="q.ss01" format="2">
  <advance width="558"/>
  <outline>
    <contour>
      <point x="226" y="-10" type="curve" smooth="yes"/>
      <point x="258" y="-10"/>
      <point x="285" y="-5"/>
      <point x="295" y="-1" type="curve"/>
      <point x="360" y="93" type="line"/>
      <point x="360" y="112" type="line"/>
      <point x="341" y="104"/>
      <point x="303" y="94"/>
      <point x="269" y="94" type="curve" smooth="yes"/>
      <point x="216" y="94"/>
      <point x="189" y="115"/>
      <point x="189" y="164" type="curve"/>
      <point x="189" y="453" type="line"/>
      <point x="173" y="429" type="line"/>
      <point x="188" y="439"/>
      <point x="224" y="448"/>
      <point x="261" y="448" type="curve" smooth="yes"/>
      <point x="305" y="448"/>
      <point x="337" y="432"/>
      <point x="352" y="420" type="curve"/>
      <point x="396" y="467" type="line"/>
      <point x="357" y="518"/>
      <point x="301" y="547"/>
      <point x="238" y="547" type="curve" smooth="yes"/>
      <point x="195" y="547"/>
      <point x="165" y="540"/>
      <point x="147" y="533" type="curve"/>
      <point x="67" y="440" type="line"/>
      <point x="67" y="149" type="line" smooth="yes"/>
      <point x="67" y="37"/>
      <point x="133" y="-10"/>
    </contour>
    <contour>
      <point x="367" y="-208" type="line"/>
      <point x="531" y="-182" type="line"/>
      <point x="531" y="-129" type="line"/>
      <point x="461" y="-106" type="line"/>
      <point x="461" y="538" type="line"/>
      <point x="408" y="540" type="line"/>
      <point x="336" y="436" type="line"/>
      <point x="336" y="83" type="line"/>
      <point x="339" y="71" type="line"/>
      <point x="339" y="-180" type="line"/>
    </contour>
  </outline>
</glyph>
<glyph name="seven.osf" format="2">
  <advance width="484"/>
  <outline>
    <contour>
      <point x="231" y="-120" type="line"/>
      <point x="309" y="128" type="line"/>
      <point x="461" y="479" type="line"/>
      <point x="434" y="560" type="line"/>
      <point x="54" y="560" type="line"/>
      <point x="24" y="530" type="line"/>
      <point x="39" y="350" type="line"/>
      <point x="108" y="350" type="line"/>
      <point x="144" y="519" type="line"/>
      <point x="77" y="456" type="line"/>
      <point x="391" y="456" type="line"/>
      <point x="349" y="502" type="line"/>
      <point x="220" y="161" type="line"/>
      <point x="106" y="-83" type="line"/>
      <point x="145" y="-130" type="line"/>
    </contour>
  </outline>
</glyph>
<glyph name="six.lf" format="2">
  <advance width="484"/>
  <outline>
    <contour>
      <point x="47" y="440" type="curve"/>
      <point x="159" y="451" type="line"/>
      <point x="159" y="555"/>
      <point x="201" y="589"/>
      <point x="280" y="589" type="curve" smooth="yes"/>
      <point x="314" y="589"/>
      <point x="360" y="586"/>
      <point x="391" y="582" type="curve"/>
      <point x="403" y="664" type="line"/>
      <point x="379" y="684" type="line"/>
      <point x="349" y="687"/>
      <point x="306" y="690"/>
      <point x="273" y="690" type="curve" smooth="yes"/>
      <point x="117" y="690"/>
      <point x="47" y="613"/>
    </contour>
    <component base="_part.sixBowl"/>
  </outline>
</glyph>
<glyph name="six.osf" format="2">
  <advance width="484"/>
  <anchor x="50" y="434" name="connect"/>
  <anchor x="453" y="434" name="_connect"/>
  <outline>
    <contour>
      <point x="163" y="432" type="line"/>
      <point x="50" y="421" type="line"/>
      <point x="50" y="165" type="line" smooth="yes"/>
      <point x="50" y="45"/>
      <point x="129" y="-10"/>
      <point x="250" y="-10" type="curve" smooth="yes"/>
      <point x="288" y="-10"/>
      <point x="327" y="-4"/>
      <point x="347" y="4" type="curve"/>
      <point x="434" y="109" type="line"/>
      <point x="434" y="268" type="line" smooth="yes"/>
      <point x="434" y="372"/>
      <point x="381" y="427"/>
      <point x="288" y="427" type="curve" smooth="yes"/>
      <point x="263" y="427"/>
      <point x="232" y="424"/>
      <point x="216" y="420" type="curve"/>
      <point x="152" y="352" type="line"/>
      <point x="152" y="313" type="line"/>
      <point x="177" y="322"/>
      <point x="218" y="328"/>
      <point x="250" y="328" type="curve" smooth="yes"/>
      <point x="291" y="328"/>
      <point x="322" y="307"/>
      <point x="322" y="245" type="curve" smooth="yes"/>
      <point x="322" y="80" type="line"/>
      <point x="336" y="104" type="line"/>
      <point x="321" y="94"/>
      <point x="298" y="90"/>
      <point x="252" y="90" type="curve" smooth="yes"/>
      <point x="188" y="90"/>
      <point x="163" y="116"/>
      <point x="163" y="185" type="curve" smooth="yes"/>
    </contour>
    <contour>
      <point x="50" y="421" type="curve"/>
      <point x="163" y="432" type="line"/>
      <point x="163" y="537"/>
      <point x="240" y="605"/>
      <point x="391" y="618" type="curve"/>
      <point x="387" y="680" type="line"/>
      <point x="358" y="690" type="line"/>
      <point x="217" y="690"/>
      <point x="50" y="618"/>
    </contour>
  </outline>
</glyph>
<glyph name="three.osf" format="2">
  <advance width="484"/>
  <anchor x="445" y="126" name="connect"/>
  <outline>
    <contour>
      <point x="445" y="126" type="line"/>
      <point x="445" y="126" type="line" smooth="yes"/>
      <point x="445" y="215"/>
      <point x="381" y="278"/>
      <point x="274" y="278" type="curve" smooth="yes"/>
      <point x="260" y="278"/>
      <point x="231" y="278"/>
      <point x="220" y="277" type="curve"/>
      <point x="230" y="247" type="line"/>
      <point x="432" y="473" type="line"/>
      <point x="407" y="560" type="line"/>
      <point x="66" y="560" type="line"/>
      <point x="36" y="530" type="line"/>
      <point x="49" y="369" type="line"/>
      <point x="118" y="369" type="line"/>
      <point x="150" y="521" type="line"/>
      <point x="83" y="463" type="line"/>
      <point x="365" y="463" type="line"/>
      <point x="334" y="495" type="line"/>
      <point x="133" y="232" type="line"/>
      <point x="161" y="190" type="line"/>
      <point x="172" y="192"/>
      <point x="208" y="193"/>
      <point x="225" y="193" type="curve" smooth="yes"/>
      <point x="295" y="193"/>
      <point x="333" y="166"/>
      <point x="333" y="115" type="curve" smooth="yes"/>
      <point x="333" y="115" type="line"/>
    </contour>
    <component base="_part.tailFiguresOld" xOffset="43"/>
  </outline>
</glyph>
<glyph name="two.lf" format="2">
  <advance width="484"/>
  <outline>
    <contour>
      <point x="150" y="88" type="line"/>
      <point x="263" y="202"/>
      <point x="431" y="346"/>
      <point x="431" y="493" type="curve" smooth="yes"/>
      <point x="431" y="619"/>
      <point x="364" y="690"/>
      <point x="232" y="690" type="curve" smooth="yes"/>
      <point x="187" y="690"/>
      <point x="146" y="685"/>
      <point x="112" y="678" type="curve"/>
      <point x="34" y="614" type="line"/>
      <point x="48" y="466" type="line"/>
      <point x="128" y="466" type="line"/>
      <point x="140" y="583" type="line"/>
      <point x="160" y="587"/>
      <point x="186" y="590"/>
      <point x="209" y="590" type="curve" smooth="yes"/>
      <point x="274" y="590"/>
      <point x="315" y="557"/>
      <point x="315" y="484" type="curve" smooth="yes"/>
      <point x="315" y="353"/>
      <point x="165" y="218"/>
      <point x="30" y="73" type="curve"/>
      <point x="45" y="0" type="line"/>
      <point x="433" y="0" type="line"/>
      <point x="457" y="25" type="line"/>
      <point x="456" y="99" type="line"/>
    </contour>
  </outline>
</glyph>
<glyph name="two.osf" format="2">
  <advance width="484"/>
  <outline>
    <contour>
      <point x="197" y="88" type="line"/>
      <point x="297" y="167"/>
      <point x="429" y="269"/>
      <point x="429" y="397" type="curve" smooth="yes"/>
      <point x="429" y="510"/>
      <point x="352" y="570"/>
      <point x="237" y="570" type="curve" smooth="yes"/>
      <point x="192" y="570"/>
      <point x="150" y="565"/>
      <point x="116" y="558" type="curve"/>
      <point x="37" y="494" type="line"/>
      <point x="59" y="346" type="line"/>
      <point x="128" y="346" type="line"/>
      <point x="147" y="463" type="line"/>
      <point x="167" y="467"/>
      <point x="193" y="470"/>
      <point x="214" y="470" type="curve" smooth="yes"/>
      <point x="275" y="470"/>
      <point x="313" y="436"/>
      <point x="313" y="376" type="curve" smooth="yes"/>
      <point x="313" y="264"/>
      <point x="170" y="162"/>
      <point x="34" y="63" type="curve"/>
      <point x="50" y="0" type="line"/>
      <point x="436" y="0" type="line"/>
      <point x="461" y="25" type="line"/>
      <point x="459" y="100" type="line"/>
    </contour>
  </outline>
</glyph>
<glyph name="u.ss01" format="2">
  <advance width="561"/>
  <outline>
    <contour>
      <point x="223" y="-10" type="curve" smooth="yes"/>
      <point x="258" y="-10"/>
      <point x="286" y="-2"/>
      <point x="310" y="6" type="curve"/>
      <point x="368" y="95" type="line"/>
      <point x="361" y="126" type="line"/>
      <point x="337" y="113"/>
      <point x="305" y="104"/>
      <point x="272" y="104" type="curve" smooth="yes"/>
      <point x="248" y="104"/>
      <point x="226" y="109"/>
      <point x="206" y="119" type="curve"/>
      <point x="206" y="525" type="line"/>
      <point x="181" y="549" type="line"/>
      <point x="17" y="518" type="line"/>
      <point x="17" y="465" type="line"/>
      <point x="81" y="442" type="line"/>
      <point x="81" y="145" type="line" smooth="yes"/>
      <point x="81" y="40"/>
      <point x="140" y="-10"/>
    </contour>
    <contour>
      <point x="426" y="-10" type="curve"/>
      <point x="546" y="18" type="line"/>
      <point x="546" y="74" type="line"/>
      <point x="475" y="93" type="line"/>
      <point x="475" y="521" type="line"/>
      <point x="443" y="544" type="line"/>
      <point x="350" y="528" type="line"/>
      <point x="350" y="100" type="line" smooth="yes"/>
      <point x="350" y="52"/>
      <point x="376" y="9"/>
    </contour>
  </outline>
</glyph>
<glyph name="zero.lf" format="2">
  <advance width="484"/>
  <outline>
    <contour>
      <point x="251" y="-10" type="curve" smooth="yes"/>
      <point x="284" y="-10"/>
      <point x="327" y="-4"/>
      <point x="347" y="4" type="curve"/>
      <point x="434" y="109" type="line"/>
      <point x="434" y="522" type="line" smooth="yes"/>
      <point x="434" y="635"/>
      <point x="364" y="690"/>
      <point x="245" y="690" type="curve" smooth="yes"/>
      <point x="208" y="690"/>
      <point x="158" y="683"/>
      <point x="137" y="677" type="curve"/>
      <point x="50" y="572" type="line"/>
      <point x="50" y="165" type="line" smooth="yes"/>
      <point x="50" y="45"/>
      <point x="132" y="-10"/>
    </contour>
    <contour>
      <point x="322" y="80" type="line"/>
      <point x="336" y="104" type="line"/>
      <point x="322" y="94"/>
      <point x="284" y="90"/>
      <point x="252" y="90" type="curve" smooth="yes"/>
      <point x="189" y="90"/>
      <point x="163" y="120"/>
      <point x="163" y="185" type="curve" smooth="yes"/>
      <point x="163" y="600" type="line"/>
      <point x="149" y="575" type="line"/>
      <point x="161" y="584"/>
      <point x="203" y="590"/>
      <point x="233" y="590" type="curve" smooth="yes"/>
      <point x="292" y="590"/>
      <point x="322" y="567"/>
      <point x="322" y="496" type="curve" smooth="yes"/>
    </contour>
  </outline>
</glyph>
<glyph name="zero.osf" format="2">
  <advance width="484"/>
  <outline>
    <contour>
      <point x="251" y="-10" type="curve" smooth="yes"/>
      <point x="284" y="-10"/>
      <point x="327" y="-4"/>
      <point x="347" y="4" type="curve"/>
      <point x="434" y="109" type="line"/>
      <point x="434" y="402" type="line" smooth="yes"/>
      <point x="434" y="515"/>
      <point x="364" y="570"/>
      <point x="245" y="570" type="curve" smooth="yes"/>
      <point x="208" y="570"/>
      <point x="158" y="563"/>
      <point x="137" y="557" type="curve"/>
      <point x="50" y="452" type="line"/>
      <point x="50" y="165" type="line" smooth="yes"/>
      <point x="50" y="45"/>
      <point x="132" y="-10"/>
    </contour>
    <contour>
      <point x="322" y="80" type="line"/>
      <point x="336" y="104" type="line"/>
      <point x="322" y="94"/>
      <point x="284" y="90"/>
      <point x="252" y="90" type="curve" smooth="yes"/>
      <point x="189" y="90"/>
      <point x="163" y="120"/>
      <point x="163" y="185" type="curve" smooth="yes"/>
      <point x="163" y="480" type="line"/>
      <point x="149" y="455" type="line"/>
      <point x="161" y="464"/>
      <point x="203" y="470"/>
      <point x="233" y="470" type="curve" smooth="yes"/>
      <point x="292" y="470"/>
      <point x="322" y="447"/>
      <point x="322" y="376" type="curve" smooth="yes"/>
    </contour>
  </outline>
</glyph>
